<?xml version="1.0" encoding="utf-8"?>
<!-- Generator: Adobe Illustrator 26.2.1, SVG Export Plug-In . SVG Version: 6.00 Build 0)  -->
<svg version="1.1" id="Layer_1" xmlns="http://www.w3.org/2000/svg" xmlns:xlink="http://www.w3.org/1999/xlink" x="0px" y="0px"
	 viewBox="0 0 941 941" style="enable-background:new 0 0 941 941;" xml:space="preserve">
<style type="text/css">
	.st0{clip-path:url(#SVGID_00000167391115375768695470000009661094974008337320_);}
	.st1{fill:url(#SVGID_00000172420262619052738260000001239920328485650839_);}
	.st2{opacity:0.15;}
	.st3{fill:#FFFFFF;}
</style>
<g>
	<defs>
		<rect id="SVGID_1_" x="84" y="83.6" width="773" height="773"/>
	</defs>
	<clipPath id="SVGID_00000065775085992478754240000007472875155240831674_">
		<use xlink:href="#SVGID_1_"  style="overflow:visible;"/>
	</clipPath>
	<g style="clip-path:url(#SVGID_00000065775085992478754240000007472875155240831674_);">
		
			<linearGradient id="SVGID_00000003093292627588731600000008923001936397314972_" gradientUnits="userSpaceOnUse" x1="470.5543" y1="858.3782" x2="470.5543" y2="84.0092" gradientTransform="matrix(1 0 0 -1 0 942)">
			<stop  offset="0" style="stop-color:#FAFF00"/>
			<stop  offset="0.5" style="stop-color:#FF773C;stop-opacity:0.5"/>
			<stop  offset="1" style="stop-color:#804B1A"/>
		</linearGradient>
		<path style="fill:url(#SVGID_00000003093292627588731600000008923001936397314972_);" d="M470.5,89.1c-15.6,0-31.5-6.9-46.6-5.1
			c-15.5,1.9-29.2,12.5-44,16.1c-15.1,3.7-32.1,0.8-46.5,6.3c-14.5,5.5-25.3,19.1-38.9,26.3c-13.6,7.2-31,8.5-43.6,17.3
			c-12.6,8.8-20,24.7-31.5,34.9c-11.6,10.3-28,15.7-38.2,27.3c-10.2,11.6-13.5,28.7-22.3,41.5c-8.7,12.8-23.5,21.9-30.7,35.7
			c-7.2,13.8-6.3,31.1-11.8,45.6c-5.4,14.4-17.5,26.9-21.2,42c-3.6,14.9,1.3,31.6-0.5,47.2c-1.8,15.2-10.6,30.3-10.6,46
			c0,15.7,8.8,30.8,10.6,45.9c1.9,15.6-3.1,32.2,0.5,47.2c3.7,15.2,15.8,27.6,21.2,42c5.5,14.6,4.7,32,11.8,45.6
			c7.2,13.7,21.9,23,30.7,35.7c8.8,12.7,12.1,29.9,22.3,41.5c10.2,11.6,26.7,17,38.2,27.3c11.5,10.3,18.8,26.1,31.5,34.9
			c12.7,8.8,29.9,10.1,43.6,17.3c13.7,7.2,24.4,20.8,38.9,26.3c14.3,5.5,31.4,2.5,46.5,6.3c14.8,3.7,28.6,14.3,44,16.1
			c15.1,1.8,31-5.1,46.6-5.1c15.6,0,31.5,6.9,46.6,5.1c15.5-1.9,29.2-12.5,44-16.1c15.1-3.7,32.1-0.8,46.5-6.3
			c14.5-5.5,25.3-19.1,38.9-26.3c13.6-7.2,30.9-8.5,43.6-17.3c12.6-8.8,20-24.7,31.5-34.9c11.6-10.3,28-15.7,38.2-27.3
			c10.2-11.6,13.6-28.7,22.3-41.5c8.8-12.8,23.5-21.9,30.7-35.7c7.2-13.8,6.3-31.1,11.8-45.6c5.4-14.4,17.5-26.9,21.3-42
			c3.6-14.9-1.3-31.6,0.5-47.2c1.8-15.2,10.6-30.2,10.6-45.9s-8.8-30.8-10.6-45.9c-1.9-15.6,3.1-32.2-0.5-47.2
			c-3.7-15.2-15.8-27.6-21.3-42c-5.5-14.6-4.7-32-11.8-45.6c-7.2-13.6-21.9-22.9-30.7-35.7c-8.7-12.8-12.2-29.8-22.4-41.4
			c-10.2-11.6-26.7-17-38.2-27.3C710,174.6,702.8,158.8,690,150c-12.7-8.8-29.9-10.1-43.6-17.3c-13.7-7.2-24.4-20.8-38.9-26.3
			c-14.3-5.5-31.4-2.5-46.5-6.3c-14.8-3.7-28.6-14.3-44-16.1C502,82.1,486.1,89.1,470.5,89.1z M470.5,638.7
			c-6.7,0-12.8-8.3-19.3-9.1c-6.4-0.8-14.5,5.8-20.8,4.2c-6.3-1.6-10.4-11.1-16.5-13.5c-6.1-2.3-15.4,2.1-21.3-1
			c-5.8-3.1-7.4-13.3-12.8-17.1c-5.4-3.8-15.5-1.6-20.4-6c-4.9-4.4-4-14.7-8.4-19.6c-4.4-5-14.6-5.3-18.4-10.8
			c-3.7-5.5-0.4-15.2-3.5-21.1c-3.1-5.9-12.9-8.6-15.3-14.9c-2.4-6.2,3.2-14.9,1.6-21.3c-1.6-6.5-10.5-11.5-11.3-18.1
			c-0.8-6.7,6.7-13.6,6.7-20.3c0-6.7-7.5-13.8-6.7-20.3c0.8-6.5,9.7-11.8,11.3-18.1c1.6-6.4-3.9-15.2-1.6-21.3s12.2-9,15.3-14.9
			c3.1-5.9-0.2-15.7,3.5-21.1c3.7-5.4,14-5.8,18.4-10.8c4.4-5,3.5-15.3,8.4-19.7c4.9-4.4,15-2.3,20.4-6c5.4-3.8,7-14,12.8-17.1
			c5.8-3.1,15.1,1.4,21.3-1c6.2-2.4,10.1-11.9,16.5-13.5c6.4-1.6,14.2,5,20.8,4.2c6.6-0.8,12.6-9.1,19.3-9.1
			c6.7,0,12.8,8.3,19.3,9.1c6.4,0.8,14.5-5.8,20.8-4.2s10.4,11.1,16.5,13.5c6.1,2.3,15.4-2.1,21.2,1c5.8,3.1,7.4,13.3,12.8,17.1
			s15.5,1.6,20.4,6c4.9,4.4,4,14.7,8.4,19.7c4.4,5,14.6,5.3,18.4,10.8c3.8,5.5,0.4,15.2,3.5,21.1c3.1,5.9,12.9,8.6,15.3,14.9
			c2.4,6.2-3.2,14.9-1.6,21.3c1.6,6.5,10.5,11.5,11.3,18.1c0.8,6.7-6.7,13.6-6.7,20.3c0,6.7,7.5,13.8,6.7,20.3
			c-0.8,6.5-9.7,11.8-11.3,18.2c-1.6,6.3,3.9,15.2,1.6,21.3s-12.2,9-15.3,14.9c-3.1,5.9,0.2,15.7-3.5,21.1
			c-3.7,5.4-14,5.8-18.4,10.7c-4.4,5-3.5,15.3-8.4,19.7c-4.9,4.4-15,2.3-20.4,6c-5.4,3.8-7,14-12.8,17.1c-5.8,3.1-15.1-1.4-21.3,1
			c-6.2,2.4-10.1,11.9-16.5,13.5c-6.4,1.6-14.2-5-20.8-4.2C483.2,630.4,477.2,638.7,470.5,638.7z"/>
		<g class="st2">
			<path d="M444.3,205.6c4.8,0,9.9,1.7,14.7,3.2c4.9,1.6,9.9,3.3,14.9,3.3h0.4c4.9,0,9.9-1.5,14.7-2.9c4.9-1.4,9.6-2.8,14.1-2.8
				c0.9,0,1.8,0.1,2.7,0.2c5.4,0.7,10.6,4,15.6,7.1c4.4,2.7,8.9,5.6,13.7,6.8c3,0.7,6,1.1,9.1,1c2.1,0,4.2-0.1,6.2-0.2
				c2.1-0.1,4.1-0.2,6.1-0.2c3.7-0.1,7.4,0.4,10.9,1.7c5.1,2,9.3,6.4,13.4,10.6c3.6,3.7,7.4,7.5,11.8,9.9c4.4,2.4,9.6,3.4,14.6,4.4
				c5.8,1.2,11.7,2.4,16.3,5.6c4.5,3.2,7.4,8.2,10.5,13.5c2.6,4.5,5.4,9.1,9.1,12.5c3.7,3.4,8.4,5.6,13,7.8
				c5.4,2.5,10.8,5.1,14.5,9.4s5.2,9.7,6.9,15.5c1.5,5,3,10.2,5.9,14.5c2.9,4.3,7,7.7,11.1,10.9c4.7,3.9,9.2,7.5,11.6,12.3
				c2.5,5,2.8,11.1,3.1,17.1c0.3,5.1,0.5,10.5,2.2,15.1c1.7,4.6,4.9,9.1,8.1,13.2c3.7,4.9,7.2,9.5,8.4,14.9
				c1.2,5.3,0.1,11.4-1.1,17.3c-1,5.1-2,10.3-1.5,15.3c0.5,5,2.6,9.9,4.7,14.7c2.3,5.4,4.7,11,4.6,16.5c-0.1,5.5-2.6,11.1-5.1,16.4
				c-2.2,4.7-4.4,9.6-5.1,14.5c-0.7,5,0.2,10.3,1.1,15.4c1,5.8,2,11.8,0.6,17.2c-1.4,5.3-5.2,10.1-8.9,14.7c-3.2,4-6.6,8.2-8.4,12.9
				c-1.8,4.7-2.2,10-2.6,15.1c-0.4,5.9-0.9,12-3.5,16.9c-2.6,4.9-7.2,8.4-12,12.1c-4.1,3.2-8.3,6.4-11.3,10.6
				c-2.9,4.1-4.5,9.1-6.1,14c-1.8,5.6-3.7,11.5-7.5,15.6c-3.7,4.1-8.9,6.3-14.5,8.8c-4.8,2.1-9.7,4.3-13.5,7.6
				c-3.8,3.3-6.5,7.7-9.2,12.1c-3.1,5-6.4,10.3-11,13.4c-4.6,3.1-10.7,4.2-16.5,5.2c-5,0.9-10.2,1.8-14.6,4
				c-4.4,2.2-8.4,6.1-12.1,9.7c-4.4,4.3-8.5,8.3-13.6,10.2c-3.1,1-6.3,1.5-9.5,1.4c-2.5,0-5.1-0.2-7.7-0.4c-2.5-0.2-5.2-0.4-7.7-0.4
				c-2.5,0-5,0.3-7.4,0.8c-4.9,1.1-9.5,3.8-14,6.5c-5.3,3.1-10.3,6-15.7,6.6c-0.7,0.1-1.4,0.1-2.1,0.1c-4.8,0-9.9-1.7-14.7-3.2
				c-4.9-1.6-9.9-3.3-14.9-3.3h-0.3c-4.9,0-9.9,1.5-14.7,2.9c-4.9,1.4-9.6,2.8-14.1,2.8c-0.9,0-1.8-0.1-2.7-0.2
				c-5.4-0.7-10.6-4-15.6-7.1c-4.4-2.7-8.9-5.6-13.7-6.8c-3-0.7-6-1.1-9.1-1c-2.1,0-4.2,0.1-6.2,0.2c-2.1,0.1-4.1,0.2-6.1,0.2
				c-3.7,0.2-7.4-0.4-10.9-1.6c-5.1-2-9.3-6.4-13.4-10.6c-3.6-3.7-7.4-7.5-11.8-9.9c-4.4-2.4-9.6-3.4-14.6-4.4
				c-5.8-1.2-11.8-2.4-16.3-5.6c-4.5-3.2-7.4-8.2-10.5-13.5c-2.6-4.5-5.4-9.1-9.1-12.5c-3.7-3.4-8.4-5.6-13-7.8
				c-5.4-2.5-10.8-5.1-14.5-9.4c-3.5-4.1-5.2-9.6-6.9-15.5c-1.5-5-3-10.2-5.9-14.5c-2.9-4.3-7-7.7-11.1-10.9
				c-4.7-3.9-9.2-7.5-11.6-12.3c-2.5-5-2.8-11.1-3.1-17.1c-0.3-5.1-0.5-10.5-2.2-15.1c-1.7-4.6-4.9-9.1-8.1-13.2
				c-3.7-4.9-7.2-9.5-8.4-14.9c-1.2-5.3-0.1-11.4,1-17.3c1-5.1,2-10.3,1.5-15.3c-0.5-5-2.6-9.9-4.7-14.7c-2.3-5.4-4.7-11-4.6-16.5
				c0.1-5.5,2.6-11.1,5.1-16.4c2.2-4.7,4.4-9.6,5.1-14.5c0.7-5-0.2-10.3-1.1-15.4c-1-5.8-2-11.8-0.6-17.2c1.4-5.3,5.2-10.1,8.9-14.7
				c3.2-4.1,6.6-8.2,8.4-12.9c1.8-4.7,2.2-10,2.6-15.1c0.4-6,0.9-12,3.5-16.9c2.6-4.9,7.2-8.4,12-12.1c4.1-3.2,8.3-6.4,11.3-10.6
				c2.9-4.1,4.5-9.1,6.1-14c1.8-5.6,3.8-11.5,7.5-15.6c3.7-4.1,8.9-6.3,14.5-8.8c4.8-2.1,9.7-4.3,13.5-7.6c3.8-3.3,6.5-7.7,9.2-12.1
				c3.1-5,6.4-10.3,11-13.4c4.6-3.1,10.7-4.2,16.5-5.2c5-0.9,10.2-1.8,14.6-4c4.4-2.2,8.4-6.1,12.1-9.7c4.4-4.3,8.5-8.3,13.6-10.2
				c3.1-1,6.3-1.5,9.5-1.4c2.5,0,5.1,0.2,7.6,0.4c2.5,0.2,5.2,0.4,7.7,0.4c2.5,0,5-0.2,7.5-0.7c4.9-1.1,9.5-3.8,14-6.5
				c5.3-3.1,10.3-6,15.7-6.6C442.9,205.7,443.6,205.7,444.3,205.6 M444.3,204.7c-0.7,0-1.5,0-2.2,0.1c-10.4,1.1-19.5,10.7-29.8,13.1
				c-2.4,0.5-4.8,0.8-7.2,0.7c-5,0-10.3-0.7-15.4-0.7c-3.3-0.1-6.7,0.4-9.9,1.5c-9.8,3.6-16.3,15.1-25.8,19.9
				c-9.3,4.8-22.3,3.3-31.2,9.3c-8.9,6-12.5,18.6-20.4,25.4c-8.1,6.9-21.1,8.7-28.1,16.4c-7,7.8-7.6,21.1-13.7,29.7
				c-6.1,8.6-18.4,13.5-23.4,22.8s-2.3,22.3-6.2,32.1c-3.8,9.8-14.6,17.5-17.3,27.8c-2.7,10.3,3,22.2,1.6,32.7s-10,20.4-10.2,31
				c-0.1,10.6,8.2,20.8,9.3,31.4c1.1,10.5-4.9,22.3-2.5,32.6c2.4,10.4,12.9,18.2,16.5,28.2c3.6,9.9,0.6,22.7,5.4,32.3
				c4.7,9.3,16.8,14.4,22.8,23.4c5.9,8.9,6.1,22.1,12.8,30.1c6.9,8.1,19.9,10.2,27.6,17.3c7.7,7.1,11.1,20,19.6,26.1
				c8.5,6.1,21.7,5,30.9,10c9.3,5,15.5,16.7,25.3,20.6c3.6,1.3,7.4,1.9,11.3,1.7c4.1,0,8.3-0.4,12.4-0.4c3,0,5.9,0.3,8.8,1
				c10.2,2.7,19,12.5,29.4,13.9c0.9,0.1,1.9,0.2,2.9,0.2c9.5,0,19.4-5.7,28.9-5.7h0.3c9.8,0.1,19.9,6.6,29.6,6.6
				c0.7,0,1.5,0,2.2-0.1c10.4-1.1,19.5-10.7,29.8-13.1c2.4-0.5,4.8-0.8,7.2-0.7c5,0,10.3,0.7,15.4,0.7c3.3,0.1,6.7-0.4,9.9-1.5
				c9.8-3.6,16.3-15.1,25.8-19.9c9.3-4.8,22.3-3.3,31.2-9.3c8.9-6,12.5-18.7,20.3-25.5c8.1-6.9,21.1-8.7,28.1-16.4
				c7-7.8,7.6-21.1,13.7-29.7c6.1-8.6,18.4-13.5,23.4-22.8c5-9.3,2.3-22.3,6.2-32.1c3.8-9.8,14.6-17.5,17.2-27.8
				c2.6-10.3-3-22.2-1.6-32.7c1.4-10.5,10.1-20.4,10.3-31c0.2-10.6-8.2-20.8-9.3-31.4c-1.1-10.5,4.9-22.3,2.5-32.6
				c-2.4-10.4-12.9-18.2-16.5-28.2c-3.6-9.9-0.6-22.7-5.4-32.3c-4.7-9.3-16.8-14.5-22.8-23.4c-5.9-8.9-6.1-22.1-12.8-30.1
				c-6.9-8.1-19.9-10.2-27.6-17.3c-7.7-7.1-11.1-20-19.6-26.1c-8.5-6.1-21.7-5-30.9-10.1c-9.2-5-15.5-16.7-25.3-20.6
				c-3.6-1.3-7.4-1.9-11.3-1.7c-4.1,0-8.3,0.4-12.4,0.4c-3,0.1-6-0.2-8.9-0.9c-10.2-2.7-19-12.5-29.4-13.9c-0.9-0.1-1.9-0.2-2.9-0.2
				c-9.5,0-19.4,5.7-28.9,5.7h-0.3C464.2,211,454.1,204.6,444.3,204.7L444.3,204.7z"/>
		</g>
		<g class="st2">
			<path d="M478.1,170.9h0.7c6.3,0.2,12.6,3,18.7,5.6c5.2,2.3,10.5,4.6,15.9,5.4c1.9,0.3,3.7,0.4,5.6,0.4c3.8-0.1,7.6-0.4,11.3-0.9
				c3.7-0.5,7.3-0.8,11-0.8c2.8,0,5.6,0.3,8.3,1c6.1,1.7,11.5,5.9,16.8,9.9c4.5,3.5,9.1,7,14.2,9.1c5.1,2.1,10.9,2.9,16.5,3.6
				c6.6,0.9,13.3,1.7,18.8,4.8c5.5,3.1,9.7,8.4,13.9,13.6c3.5,4.4,7.2,9,11.7,12.3c4.5,3.3,9.9,5.4,15.1,7.4
				c6.2,2.4,12.6,4.9,17.2,9.2c4.6,4.3,7.4,10.5,10.2,16.5c2.4,5.2,4.9,10.5,8.4,14.8c3.6,4.3,8.3,7.6,12.8,10.8
				c5.5,3.8,11.1,7.8,14.5,13.2c3.4,5.4,4.6,11.6,5.9,18.4c1.1,5.6,2.2,11.4,4.7,16.5c2.4,4.9,6.2,9.3,9.9,13.5
				c4.4,5,8.9,10.3,11,16.3c2.1,6.1,1.8,13,1.4,19.7c-0.3,5.6-0.6,11.4,0.6,16.8c1.2,5.5,3.9,10.8,6.5,15.9
				c3.2,6.1,6.1,11.9,6.7,18.2c0.6,6.3-1.4,13-3.3,19.4c-1.6,5.4-3.3,11-3.4,16.5c-0.1,5.5,1.2,11.3,2.5,16.9
				c1.5,6.5,3.1,13.1,2.2,19.3c-0.9,6.2-4.4,12.2-7.8,18c-2.9,4.9-5.8,9.9-7.3,15.3c-1.5,5.3-1.5,11.3-1.6,17
				c0,6.6-0.1,13.5-2.5,19.3c-2.4,5.8-7.2,10.8-11.8,15.5c-3.9,4.1-8,8.3-10.7,13.1c-2.7,4.9-4.1,10.5-5.5,16.1
				c-1.6,6.4-3.3,13.1-7,18.2c-3.7,5.1-9.5,8.7-15.1,12.2c-4.8,3-9.8,6.1-13.6,10.2c-3.8,4.1-6.5,9.2-9.1,14.2
				c-3.1,5.9-6.3,12-11.2,16.1c-4.8,4.1-11,6-17.5,8.2c-5.4,1.8-11,3.6-15.7,6.6c-4.7,3.1-8.4,7.3-12.2,11.5
				c-4.5,5-9.1,10.1-14.8,12.9c-5.5,2.7-12,3.2-18.8,3.7c-5.7,0.4-11.6,0.8-16.9,2.7c-5.3,1.9-10.2,5.2-14.9,8.4
				c-5.7,3.9-11,7.5-17,8.9c-2,0.4-4.1,0.6-6.2,0.6c-4.5-0.1-9-0.7-13.4-1.5c-4.5-0.9-9-1.4-13.5-1.6c-1.1,0-2.1,0-3.1,0.1
				c-5.5,0.5-11.1,2.6-16.4,4.6c-5.9,2.2-12.1,4.5-18.1,4.5h-0.7c-6.3-0.2-12.6-3-18.7-5.6c-5.2-2.3-10.5-4.6-15.9-5.4
				c-1.9-0.3-3.7-0.4-5.6-0.4c-3.8,0.1-7.6,0.4-11.3,0.9c-3.7,0.5-7.4,0.8-11.1,0.9c-2.8,0-5.6-0.3-8.3-1
				c-6.1-1.7-11.5-5.9-16.8-9.9c-4.5-3.5-9.1-7-14.2-9.1c-5.1-2.1-10.9-2.9-16.5-3.6c-6.6-0.9-13.3-1.7-18.8-4.8
				c-5.5-3.1-9.7-8.4-13.9-13.6c-3.5-4.4-7.2-9-11.7-12.3c-4.5-3.3-9.9-5.4-15.1-7.4c-6.2-2.4-12.6-4.9-17.2-9.2
				c-4.6-4.3-7.4-10.5-10.2-16.5c-2.4-5.2-4.9-10.5-8.4-14.8c-3.6-4.3-8.3-7.6-12.9-10.8c-5.4-3.8-11.1-7.8-14.5-13.2
				c-3.5-5.4-4.6-11.6-5.9-18.4c-1.1-5.6-2.2-11.4-4.7-16.5c-2.4-4.9-6.2-9.3-9.9-13.5c-4.4-5-8.9-10.3-11-16.3
				c-2.1-6.1-1.8-13-1.4-19.7c0.3-5.6,0.6-11.4-0.6-16.8c-1.2-5.5-3.9-10.8-6.5-15.9c-3.2-6.2-6.1-12-6.7-18.2
				c-0.6-6.2,1.4-13,3.3-19.4c1.6-5.4,3.3-11,3.4-16.5c0.2-5.5-1-11.3-2.3-16.8c-1.5-6.5-3.1-13.1-2.2-19.3c0.9-6.2,4.4-12.2,7.8-18
				c2.9-4.9,5.8-9.9,7.3-15.3c1.5-5.3,1.5-11.3,1.6-17c0-6.6,0.1-13.5,2.5-19.3c2.4-5.8,7.2-10.8,11.8-15.5c3.9-4.1,8-8.3,10.7-13.1
				c2.7-4.8,4.1-10.5,5.5-16.1c1.6-6.4,3.3-13.1,7-18.2c3.7-5.1,9.5-8.7,15.1-12.2c4.8-3,9.8-6.1,13.6-10.2
				c3.8-4.1,6.5-9.2,9.1-14.2c3.1-5.9,6.3-12,11.2-16.1c4.8-4.1,11-6,17.5-8.2c5.4-1.8,11-3.6,15.7-6.6c4.7-3.1,8.4-7.3,12.2-11.5
				c4.4-5,9-10.1,14.8-12.9c5.5-2.7,12-3.2,18.8-3.7c5.7-0.4,11.6-0.8,16.9-2.7c5.3-1.9,10.1-5.3,14.8-8.5c5.7-3.9,11-7.5,17-8.9
				c2-0.4,4.1-0.6,6.2-0.6c4.5,0.1,9,0.7,13.4,1.5c4.5,0.9,9,1.4,13.5,1.6c1.1,0,2.1,0,3.1-0.1c5.5-0.5,11-2.6,16.4-4.6
				C466,173.2,472.2,170.9,478.1,170.9 M478.2,169.9c-11.5,0-22.9,8-34.6,9.1c-1,0.1-2,0.1-3,0.1c-8.7,0-18-3.1-26.9-3.1
				c-2.2,0-4.3,0.2-6.4,0.7c-11.5,2.5-20.7,13.4-32.1,17.3c-11.4,4-25.3,1.2-35.8,6.4c-10.8,5.3-17.2,18.1-27.1,24.5
				c-10,6.5-24.2,7.3-33.3,14.9c-9,7.6-12.3,21.7-20.4,30.3c-8.1,8.7-21.8,12.9-28.7,22.5c-7,9.6-6.9,24-12.6,34.4
				c-5.8,10.4-18.1,17.7-22.6,28.8c-4.5,11.1-0.9,24.9-4.1,36.4c-3.2,11.5-13.3,21.5-15.1,33.3c-1.8,11.8,5,24.4,4.7,36.3
				c-0.3,11.8-7.8,24-6.7,36c1.1,11.8,10.7,22.4,13.2,34.1c2.5,11.5-1.9,25.2,2.1,36.6c3.9,11.4,15.8,19.4,20.9,30
				c5.3,10.8,4.3,25.1,10.7,35c6.5,10.1,19.9,15,27.5,24.1c7.6,9.1,10.1,23.3,18.7,31.4c8.6,8.1,22.9,9.7,32.4,16.7
				c9.6,7,15.3,20.2,25.6,26c10.3,5.8,24.5,3.9,35.4,8.5c11,4.5,19.6,15.9,31.1,19.1c2.8,0.7,5.7,1.1,8.6,1.1c7.3,0,15-1.7,22.4-1.7
				c1.8,0,3.7,0.1,5.5,0.4c11.7,1.8,22.8,10.7,34.7,11.1h0.7c11.5,0,22.9-8,34.6-9.1c1-0.1,2-0.1,3-0.1c8.7,0,18,3.1,26.9,3.1
				c2.2,0,4.3-0.2,6.4-0.7c11.4-2.5,20.7-13.4,32.1-17.3c11.4-4,25.3-1.3,35.8-6.4c10.8-5.3,17.2-18.1,27.1-24.5
				c9.9-6.4,24.2-7.3,33.3-14.9c9-7.6,12.3-21.7,20.4-30.3c8.1-8.7,21.8-12.9,28.7-22.5c7-9.6,6.8-24,12.6-34.4
				c5.8-10.4,18.1-17.7,22.6-28.8c4.5-11.1,0.9-24.9,4.1-36.4c3.2-11.5,13.3-21.5,15.1-33.3c1.8-11.8-5-24.4-4.7-36.3
				c0.3-12,7.8-24,6.7-36c-1.1-11.8-10.7-22.4-13.2-34.1c-2.5-11.5,1.9-25.2-2.1-36.6c-3.9-11.4-15.7-19.4-20.9-30
				c-5.3-10.8-4.3-25.1-10.7-35c-6.5-10.1-19.9-15-27.5-24.1s-10.1-23.3-18.7-31.4c-8.6-8.1-22.9-9.7-32.4-16.7
				c-9.5-7-15.3-20.2-25.6-26c-10.3-5.8-24.5-3.9-35.4-8.5c-11-4.5-19.6-15.9-31.1-19.1c-2.8-0.7-5.7-1.1-8.6-1.1
				c-7.3,0-15,1.7-22.4,1.7c-1.8,0-3.7-0.1-5.5-0.4c-11.7-1.8-22.8-10.7-34.8-11.1H478.2z"/>
		</g>
		<g class="st2">
			<path d="M481.5,273.4h0.6c3.8,0.2,7.4,2.6,11.2,5.2c3.4,2.3,7,4.7,10.8,5.4c0.9,0.2,1.8,0.2,2.7,0.2c3.1-0.1,6.2-0.6,9.1-1.4
				c2.9-0.8,5.8-1.3,8.8-1.4c1.3,0,2.5,0.2,3.7,0.5c3.6,1.1,6.5,4.3,9.6,7.7c2.8,3.1,5.7,6.3,9.3,7.9c3.6,1.6,7.9,1.7,12.1,1.7
				c4.6,0.1,8.9,0.1,12.1,2.1c3.2,2,5.5,6.1,7.7,10c2,3.6,3.9,7.4,7,9.7c3,2.4,7.2,3.5,11.2,4.5c4.4,1.2,8.6,2.3,11.3,5
				c2.7,2.7,3.9,7.2,5,11.5c1,4,2.1,8.1,4.5,11.2c2.4,3,6.2,5.1,9.8,7.1c4.1,2.2,7.9,4.3,9.9,7.6c2,3.3,2.1,7.7,2.1,12.3
				c0.1,4.2,0.1,8.5,1.7,12c1.6,3.5,4.7,6.4,7.8,9.2c3.4,3.1,6.6,6.1,7.8,9.8c1.2,3.7,0.2,7.9-0.9,12.5c-0.9,4.1-1.9,8.2-1.2,12.1
				c0.7,3.8,3.1,7.4,5.4,10.8c2.6,3.8,5,7.5,5.3,11.4c0.2,3.9-1.7,7.7-3.8,11.9c-1.9,3.7-3.8,7.6-4,11.5c-0.2,3.9,1.2,7.8,2.6,11.7
				c1.5,4.2,3.1,8.5,2.4,12.4c-0.7,3.8-3.5,7-6.5,10.5c-2.7,3.2-5.5,6.4-6.7,10.2c-1.2,3.8-0.7,7.9-0.2,12c0.5,4.4,1,9-0.6,12.6
				c-1.6,3.6-5.4,6.3-9,8.9c-3.3,2.4-6.8,4.9-8.7,8.1c-2,3.3-2.6,7.7-3.1,11.8c-0.6,4.6-1.2,8.9-3.5,11.9c-2.3,3-6.7,4.8-10.8,6.4
				c-3.8,1.5-7.8,3.1-10.5,5.8c-2.7,2.7-4.3,6.8-5.8,10.7c-1.7,4.3-3.3,8.4-6.3,10.7c-3,2.4-7.4,3-11.9,3.6
				c-4.1,0.6-8.3,1.1-11.6,3.1c-3.3,2-5.8,5.5-8.2,8.9c-2.7,3.8-5.2,7.4-8.7,8.9c-1.9,0.8-4,1.2-6.1,1.1c-2.1,0-4.2-0.2-6.3-0.5
				c-2.2-0.3-4.4-0.4-6.5-0.5c-1.9,0-3.7,0.2-5.5,0.7c-3.7,1.2-6.9,4-10,6.7c-3.5,3-6.8,6-10.6,6.6c-0.6,0.1-1.3,0.2-2,0.2
				c-3.2,0-6.8-1.3-10.2-2.5c-3.6-1.3-7.3-2.7-10.9-2.7h-0.9c-3.8,0.2-7.6,2.2-11.3,4.1c-3.7,1.9-7.6,4-11.3,4h-0.6
				c-3.8-0.2-7.4-2.6-11.2-5.2c-3.4-2.3-7-4.7-10.8-5.4c-0.9-0.2-1.8-0.2-2.7-0.2c-3.1,0.1-6.2,0.6-9.1,1.4
				c-2.9,0.8-5.8,1.3-8.8,1.4c-1.3,0-2.5-0.2-3.7-0.5c-3.6-1.1-6.5-4.3-9.6-7.7c-2.8-3.1-5.7-6.3-9.3-7.9c-3.6-1.6-7.9-1.7-12.1-1.7
				c-4.6-0.1-8.9-0.1-12.1-2.1c-3.2-2-5.5-6.1-7.7-10c-2-3.6-3.9-7.4-7-9.7c-3-2.4-7.2-3.5-11.2-4.5c-4.4-1.2-8.6-2.3-11.3-5
				c-2.7-2.7-3.9-7.2-5-11.5c-1-4-2.1-8.1-4.5-11.2c-2.4-3-6.2-5.1-9.8-7.1c-4-2.2-7.9-4.3-9.9-7.6c-2-3.3-2.1-7.7-2.1-12.3
				c-0.1-4.2-0.1-8.5-1.7-12c-1.6-3.5-4.8-6.4-7.8-9.2c-3.4-3.1-6.6-6.1-7.8-9.8c-1.2-3.7-0.2-7.9,0.9-12.5
				c0.9-4.1,1.9-8.2,1.2-12.1c-0.7-3.8-3.1-7.4-5.4-10.8c-2.6-3.8-5-7.5-5.3-11.4c-0.2-3.9,1.7-7.7,3.8-11.9c1.9-3.7,3.8-7.6,4-11.5
				c0.2-3.9-1.2-7.8-2.7-11.7c-1.5-4.2-3.1-8.5-2.4-12.4c0.7-3.8,3.5-7.1,6.5-10.5c2.7-3.2,5.5-6.4,6.7-10.2c1.2-3.8,0.7-7.9,0.2-12
				c-0.5-4.4-1-9,0.6-12.6c1.6-3.6,5.3-6.3,9-8.9c3.3-2.4,6.8-4.9,8.7-8.1c2-3.3,2.6-7.7,3.1-11.8c0.6-4.6,1.2-8.9,3.5-11.9
				c2.3-3,6.7-4.8,10.8-6.4c3.8-1.5,7.8-3.1,10.5-5.8c2.7-2.7,4.3-6.8,5.8-10.7c1.7-4.3,3.3-8.4,6.3-10.7c3-2.4,7.4-3,11.9-3.6
				c4.1-0.6,8.3-1.1,11.6-3.1c3.3-2,5.8-5.5,8.2-8.9c2.7-3.8,5.2-7.4,8.7-8.9c1.9-0.8,4-1.2,6.1-1.1c2.1,0,4.3,0.2,6.4,0.5
				c2.2,0.3,4.4,0.4,6.5,0.5c1.9,0,3.7-0.2,5.5-0.7c3.7-1.2,6.9-4,10-6.7c3.5-3,6.8-6,10.6-6.6c0.7-0.1,1.3-0.2,2-0.2
				c3.2,0,6.8,1.3,10.2,2.5c3.6,1.3,7.3,2.7,10.9,2.7h0.9c3.8-0.2,7.6-2.2,11.3-4.1C473.8,275.4,477.8,273.4,481.5,273.4
				 M481.5,272.4c-7.6,0-15.1,7.5-22.6,8h-0.8c-6.8,0-14.3-5.2-21.1-5.2c-0.7,0-1.5,0.1-2.2,0.2c-7.6,1.4-13.3,11-20.7,13.3
				c-1.7,0.5-3.4,0.7-5.2,0.7c-4.2,0-8.7-0.9-12.9-0.9c-2.2-0.1-4.4,0.3-6.5,1.2c-7.1,3.2-10.3,13.9-17,17.9c-6.7,4-17.5,2-23.7,6.8
				c-6.2,4.8-6.7,15.9-12.2,21.5c-5.5,5.6-16.5,6.1-21.3,12.3c-4.8,6.2-2.7,17-6.7,23.8c-4,6.8-14.5,9.9-17.7,17.1
				c-3.2,7.2,1.4,17.3-0.9,24.7c-2.3,7.5-11.8,13.2-13.2,20.8c-1.4,7.6,5.5,16.5,5,24.2c-0.5,7.8-8.3,15.7-7.8,23.5
				c0.5,7.8,9.3,14.6,10.7,22.3c1.4,7.7-4.3,17.2-2,24.7c2.3,7.5,12.4,12,15.6,19.1c3.2,7.1-0.2,17.7,3.9,24.4
				c4,6.7,14.9,8.6,19.7,14.8c4.8,6.2,4,17.2,9.6,22.8c5.5,5.6,16.5,4.7,22.7,9.6c6.2,4.8,8,15.7,14.7,19.8
				c6.7,4.1,17.1,0.6,24.3,3.8c7.2,3.2,11.7,13.4,19,15.6c1.3,0.4,2.6,0.6,4,0.6c5.8,0,12.2-2.9,17.9-2.9c0.9,0,1.7,0.1,2.5,0.2
				c7.7,1.4,14.5,10.2,22.2,10.7h0.7c7.6,0,15.1-7.5,22.6-8c0.3,0,0.5,0,0.8,0c6.8,0,14.3,5.2,21.1,5.2c0.7,0,1.5-0.1,2.2-0.2
				c7.6-1.4,13.3-11,20.7-13.3c1.7-0.5,3.4-0.7,5.2-0.7c4.2,0,8.7,1,12.9,1c2.2,0.1,4.4-0.3,6.5-1.2c7.1-3.2,10.3-13.9,16.9-17.9
				c6.7-4,17.5-2,23.7-6.8c6.2-4.8,6.7-15.9,12.2-21.5c5.5-5.6,16.5-6.1,21.3-12.3c4.8-6.2,2.7-17,6.7-23.8
				c4-6.8,14.5-9.9,17.7-17.1c3.2-7.2-1.4-17.3,0.9-24.7c2.3-7.5,11.8-13.2,13.2-20.8c1.4-7.6-5.5-16.5-5-24.2
				c0.5-7.8,8.3-15.7,7.8-23.5c-0.5-7.8-9.3-14.6-10.7-22.3s4.4-17.3,2-24.7c-2.3-7.4-12.4-12-15.6-19.1c-3.2-7.1,0.2-17.7-3.9-24.4
				c-4-6.7-14.9-8.6-19.7-14.8c-4.8-6.2-4-17.2-9.6-22.8c-5.5-5.6-16.5-4.7-22.7-9.6c-6.2-4.8-8-15.7-14.8-19.8
				c-6.8-4.1-17.1-0.6-24.3-3.8c-7.2-3.2-11.6-13.3-18.9-15.6c-1.3-0.4-2.6-0.6-3.9-0.6c-5.8,0-12.3,2.9-18,2.9
				c-0.8,0-1.7-0.1-2.5-0.2c-7.7-1.4-14.5-10.2-22.2-10.7L481.5,272.4L481.5,272.4z"/>
		</g>
		<circle cx="472.1" cy="469.7" r="29.7"/>
		<circle class="st3" cx="472.1" cy="469.7" r="1.6"/>
	</g>
</g>
</svg>
