<svg width="980" height="987" viewBox="0 0 980 987" fill="none" xmlns="http://www.w3.org/2000/svg">
<g clip-path="url(#clip0_17_164)">
<path d="M490.006 6.95368C470.213 6.95368 450.106 -1.91276 430.938 0.392513C411.344 2.77379 393.899 16.3014 375.093 20.9753C355.974 25.7379 334.343 21.9886 316.199 28.9678C297.843 36.0356 284.109 53.4139 266.902 62.5843C249.695 71.7547 227.652 73.4647 211.633 84.6997C195.613 95.9348 186.303 116.188 171.645 129.311C156.987 142.433 136.207 149.311 123.223 164.143C110.24 178.975 106.054 200.787 94.9697 217.101C83.8858 233.415 65.2042 245.056 56.0821 262.637C46.96 280.218 48.0847 302.32 41.0869 320.902C34.2016 339.293 18.844 355.215 14.158 374.582C9.53446 393.645 15.8325 414.949 13.4707 434.81C11.1464 454.266 0 473.443 0 493.494C0 513.544 11.1464 532.759 13.4457 552.164C15.8075 572.025 9.50947 593.33 14.133 612.393C18.819 631.772 34.1266 647.681 41.0619 666.073C48.0347 684.692 46.985 706.909 56.0571 724.338C65.1292 741.767 83.8358 753.648 94.9697 769.911C106.104 786.175 110.277 808.113 123.223 822.869C136.169 837.626 157.075 844.554 171.695 857.689C186.316 870.824 195.538 891.014 211.683 902.3C227.827 913.586 249.608 915.169 266.952 924.415C284.297 933.662 297.893 951.015 316.249 958.032C334.393 965.011 356.036 961.262 375.143 966.024C393.949 970.698 411.381 984.226 430.988 986.607C450.156 988.938 470.263 980.046 490.056 980.046C509.85 980.046 529.956 988.912 549.125 986.607C568.719 984.226 586.163 970.698 604.957 966.024C624.076 961.262 645.707 965.011 663.851 958.032C682.22 950.964 695.941 933.586 713.16 924.415C730.38 915.245 752.398 913.535 768.43 902.3C784.462 891.065 793.747 870.811 808.417 857.689C823.088 844.567 843.931 837.689 856.889 822.857C869.848 808.024 874.071 786.213 885.193 769.899C896.314 753.584 914.958 741.944 924.08 724.3C933.202 706.656 932.09 684.616 939.076 666.035C945.961 647.643 961.319 631.721 966.017 612.355C970.628 593.292 964.343 571.987 966.692 552.126C968.991 532.696 980.137 513.519 980.137 493.456C980.137 473.392 968.991 454.19 966.692 434.798C964.343 414.937 970.628 393.632 966.017 374.569C961.319 355.19 945.961 339.281 939.076 320.889C932.115 302.27 933.152 280.053 924.08 262.624C915.008 245.195 896.277 233.327 885.193 217.025C874.109 200.724 869.723 178.937 856.777 164.13C843.831 149.323 822.925 142.446 808.305 129.298C793.684 116.15 784.475 95.9855 768.318 84.6997C752.16 73.414 730.392 71.8307 713.048 62.5843C695.703 53.3379 682.095 35.985 663.738 28.9678C645.594 21.9886 623.964 25.7379 604.845 20.9753C586.101 16.3014 568.606 2.77379 549.012 0.392513C529.906 -1.9381 509.837 6.95368 490.006 6.95368ZM490.006 708.784C481.534 708.784 473.761 698.169 465.589 697.168C457.417 696.168 447.207 704.578 439.16 702.577C431.113 700.576 425.977 688.353 418.217 685.376C410.457 682.399 398.635 688.087 391.275 684.109C383.915 680.132 381.878 667.111 375.03 662.298C368.183 657.485 355.399 660.208 349.164 654.597C342.928 648.986 344.053 635.851 338.505 629.517C332.956 623.184 319.948 622.754 315.2 615.774C310.451 608.795 314.65 596.344 310.751 588.82C306.852 581.297 294.344 577.788 291.357 569.821C288.371 561.854 295.456 550.821 293.444 542.576C291.432 534.33 280.148 527.908 279.136 519.409C278.124 510.91 287.608 502.043 287.608 493.456C287.608 484.868 278.161 475.824 279.136 467.515C280.111 459.206 291.47 452.493 293.444 444.348C295.418 436.204 288.446 424.969 291.37 417.103C294.294 409.237 306.877 405.576 310.751 398.103C314.625 390.63 310.451 378.103 315.2 371.149C319.948 364.195 332.969 363.752 338.505 357.419C344.04 351.086 342.916 337.938 349.164 332.314C355.412 326.69 368.145 329.426 375.03 324.6C381.916 319.775 383.865 306.754 391.275 302.802C398.685 298.85 410.369 304.613 418.217 301.535C426.064 298.457 430.988 286.335 439.16 284.334C447.332 282.333 457.217 290.756 465.589 289.743C473.961 288.729 481.534 278.128 490.006 278.128C498.479 278.128 506.251 288.742 514.411 289.743C522.571 290.743 532.805 282.333 540.84 284.334C548.875 286.335 554.036 298.558 561.796 301.535C569.556 304.512 581.365 298.824 588.725 302.802C596.085 306.779 598.122 319.8 604.97 324.6C611.817 329.401 624.588 326.703 630.836 332.314C637.084 337.925 635.947 351.086 641.483 357.419C647.019 363.752 660.04 364.183 664.801 371.162C669.562 378.141 665.338 390.592 669.237 398.116C673.135 405.64 685.644 409.148 688.63 417.115C691.617 425.083 684.532 436.115 686.544 444.361C688.555 452.607 699.839 459.028 700.852 467.527C701.864 476.027 692.379 484.893 692.379 493.468C692.379 502.043 701.839 511.112 700.852 519.422C699.864 527.731 688.53 534.52 686.556 542.614C684.582 550.707 691.555 561.993 688.643 569.859C685.731 577.725 673.123 581.385 669.249 588.858C665.375 596.332 669.549 608.871 664.813 615.825C660.077 622.779 647.031 623.184 641.495 629.517C635.96 635.851 637.097 648.998 630.836 654.622C624.576 660.246 611.855 657.51 604.982 662.336C598.109 667.162 596.135 680.183 588.737 684.135C581.34 688.087 569.656 682.323 561.796 685.401C553.936 688.479 549.025 700.601 540.853 702.602C532.68 704.604 522.796 696.18 514.424 697.194C506.051 698.207 498.466 708.784 490.006 708.784Z" fill="url(#paint0_linear_17_164)"/>
<g opacity="0.15">
<path d="M456.779 155.695C462.877 155.695 469.275 157.81 475.448 159.837C481.621 161.863 488.057 163.991 494.355 164.08H494.842C501.09 164.08 507.338 162.193 513.511 160.369C519.684 158.545 525.62 156.759 531.431 156.759C532.569 156.784 533.704 156.885 534.829 157.063C541.702 158.013 548.25 162.129 554.573 166.094C560.134 169.577 565.882 173.187 572.005 174.808C575.764 175.727 579.623 176.153 583.489 176.075C586.101 176.075 588.775 175.948 591.374 175.834C593.973 175.72 596.597 175.594 599.159 175.594C603.857 175.404 608.548 176.126 612.98 177.722C619.415 180.255 624.801 185.853 629.999 191.237C634.585 195.974 639.321 200.876 644.907 203.903C650.493 206.93 657.028 208.26 663.413 209.552C670.736 211.034 678.309 212.554 684.019 216.658C689.73 220.762 693.354 227.095 697.29 233.871C700.627 239.597 704.076 245.525 708.787 249.882C713.498 254.239 719.458 257.026 725.319 259.825C732.104 263.055 739.064 266.399 743.713 271.807C748.361 277.216 750.248 284.132 752.46 291.617C754.347 298.039 756.309 304.664 759.958 310.098C763.606 315.531 768.855 319.876 773.991 324.031C779.989 328.958 785.649 333.594 788.748 339.75C791.947 346.083 792.335 353.961 792.71 361.548C793.035 368.109 793.359 374.899 795.496 380.826C797.633 386.754 801.744 392.391 805.756 397.698C810.442 403.955 814.865 409.87 816.427 416.698C817.989 423.525 816.527 431.289 815.09 438.724C813.84 445.184 812.591 451.885 813.216 458.205C813.84 464.526 816.565 470.872 819.151 477.015C822.088 483.931 825.124 491.087 825.024 498.092C824.924 505.096 821.675 512.227 818.539 519.08C815.79 525.084 812.953 531.29 812.104 537.623C811.254 543.956 812.366 550.733 813.441 557.281C814.69 564.717 815.94 572.405 814.19 579.22C812.441 586.034 807.63 592.101 802.944 597.991C798.858 603.159 794.622 608.517 792.31 614.457C789.998 620.398 789.486 627.212 788.998 633.799C788.436 641.335 787.861 649.138 784.537 655.332C781.213 661.525 775.44 666.009 769.28 670.797C764.081 674.838 758.696 679.018 755.009 684.287C751.323 689.556 749.299 695.915 747.262 702.159C744.925 709.366 742.513 716.814 737.777 722.083C733.041 727.353 726.531 730.177 719.371 733.306C713.335 735.978 707.099 738.74 702.239 742.97C697.378 747.201 693.966 752.825 690.53 758.385C686.556 764.832 682.432 771.495 676.559 775.485C670.686 779.475 663.051 780.805 655.653 782.097C649.28 783.211 642.683 784.364 637.147 787.163C631.611 789.962 626.55 794.915 621.827 799.551C616.266 805.023 611.018 810.178 604.582 812.559C600.695 813.879 596.609 814.492 592.511 814.37C589.325 814.37 586.013 814.13 582.802 813.889C579.59 813.648 576.229 813.42 572.992 813.42C569.823 813.397 566.662 813.741 563.57 814.446C557.322 815.903 551.512 819.361 545.838 822.705C539.128 826.657 532.793 830.406 525.932 831.141C525.036 831.243 524.135 831.294 523.233 831.293C517.148 831.293 510.737 829.177 504.564 827.151C498.391 825.124 491.956 822.996 485.658 822.907H485.22C478.972 822.907 472.724 824.795 466.551 826.619C460.378 828.443 454.443 830.229 448.632 830.229C447.474 830.231 446.318 830.155 445.171 830.001C438.298 829.051 431.75 824.934 425.427 820.97C419.879 817.486 414.18 813.876 408.007 812.255C404.249 811.337 400.389 810.912 396.524 810.988C393.912 810.988 391.225 811.115 388.626 811.229C386.027 811.343 383.403 811.47 380.841 811.47C376.141 811.673 371.445 810.964 367.008 809.38C360.573 806.847 355.199 801.248 349.988 795.865C345.402 791.128 340.666 786.226 335.081 783.198C329.495 780.171 322.96 778.841 316.587 777.549C309.251 776.067 301.679 774.547 295.968 770.443C290.257 766.34 286.646 760.006 282.71 753.23C279.373 747.505 275.925 741.577 271.201 737.22C266.478 732.862 260.529 730.076 254.669 727.277C247.883 724.047 240.923 720.703 236.275 715.282C231.839 710.05 229.739 702.97 227.527 695.484C225.641 689.062 223.679 682.438 220.03 677.004C216.381 671.57 211.133 667.225 205.997 663.071C199.999 658.144 194.326 653.508 191.239 647.352C188.04 641.019 187.653 633.14 187.278 625.553C186.953 618.992 186.615 612.203 184.479 606.275C182.342 600.347 178.231 594.71 174.219 589.403C169.533 583.146 165.11 577.231 163.56 570.404C162.011 563.577 163.46 555.812 164.885 548.377C166.135 541.904 167.384 535.217 166.759 528.896C166.135 522.576 163.41 516.23 160.824 510.087C157.887 503.171 154.863 496.014 154.963 489.01C155.063 482.005 158.3 474.874 161.436 468.022C164.185 462.018 167.034 455.811 167.871 449.478C168.709 443.145 167.609 436.356 166.534 429.82C165.285 422.385 164.035 414.696 165.797 407.882C167.559 401.067 172.345 395 177.044 389.11C181.13 383.93 185.353 378.585 187.678 372.644C190.002 366.704 190.489 359.889 190.977 353.302C191.539 345.703 192.114 337.964 195.438 331.77C198.762 325.576 204.535 321.092 210.695 316.304C215.906 312.264 221.279 308.084 224.966 302.814C228.652 297.545 230.689 291.187 232.713 284.93C235.05 277.735 237.474 270.287 242.198 265.018C246.921 259.749 253.519 256.924 260.604 253.796C266.64 251.123 272.875 248.362 277.736 244.131C282.597 239.901 286.009 234.264 289.445 228.716C293.431 222.269 297.543 215.607 303.416 211.617C309.289 207.627 316.936 206.297 324.322 205.005C330.707 203.89 337.305 202.738 342.841 199.875C348.376 197.012 353.437 192.123 358.161 187.487C363.709 182.015 368.957 176.86 375.393 174.479C379.284 173.16 383.375 172.547 387.476 172.668C390.65 172.668 393.962 172.908 397.173 173.149C400.385 173.39 403.759 173.618 406.995 173.618C410.17 173.668 413.339 173.349 416.442 172.668C422.69 171.211 428.501 167.753 434.162 164.409C440.872 160.457 447.207 156.708 454.068 155.973C454.964 155.871 455.865 155.821 456.767 155.821M456.767 154.555C455.823 154.555 454.881 154.605 453.943 154.707C440.734 156.138 429.213 168.361 416.155 171.426C413.147 172.089 410.073 172.399 406.995 172.351C400.597 172.351 393.899 171.401 387.476 171.401C383.234 171.284 379.005 171.922 374.98 173.288C362.559 177.886 354.287 192.554 342.278 198.748C330.532 204.815 313.962 202.94 302.741 210.565C291.52 218.191 286.933 234.327 276.937 243.042C266.715 251.908 250.195 254.138 241.286 264.043C232.376 273.948 231.626 291.009 223.954 301.953C216.281 312.897 200.674 319.205 194.351 331.086C188.028 342.967 191.401 359.56 186.528 372.112C181.655 384.664 168.009 394.468 164.647 407.578C161.286 420.687 168.496 435.912 166.697 449.313C164.897 462.714 153.963 475.381 153.776 488.921C153.589 502.461 164.16 515.52 165.585 528.959C167.009 542.398 159.337 557.395 162.398 570.632C165.46 583.868 178.756 593.824 183.367 606.617C187.903 619.207 184.066 635.661 190.189 647.833C196.187 659.74 211.52 666.25 219.055 677.65C226.59 689.049 226.728 705.921 235.3 716.054C244.047 726.403 260.554 729.062 270.289 738.094C280.023 747.125 284.372 763.629 295.181 771.406C305.99 779.183 322.672 777.841 334.418 784.237C346.165 790.634 354.087 805.58 366.471 810.52C371.054 812.155 375.898 812.907 380.754 812.736C385.927 812.736 391.263 812.255 396.436 812.255C400.198 812.196 403.952 812.621 407.608 813.522C420.516 816.929 431.7 829.469 444.921 831.255C446.122 831.417 447.333 831.497 448.544 831.495C460.541 831.495 473.112 824.174 485.133 824.174H485.558C497.929 824.351 510.725 832.559 523.146 832.559C524.093 832.559 525.04 832.508 525.982 832.407C539.191 830.976 550.699 818.753 563.758 815.675C566.772 815.023 569.848 814.717 572.93 814.763C579.315 814.763 586.013 815.713 592.449 815.713C596.691 815.833 600.921 815.194 604.945 813.826C617.366 809.228 625.638 794.56 637.647 788.366C649.393 782.299 665.963 784.174 677.197 776.549C688.43 768.923 692.992 752.66 702.988 743.945C713.21 735.079 729.73 732.85 738.639 722.945C747.549 713.04 748.299 695.978 755.971 685.022C763.644 674.065 779.251 667.783 785.574 655.889C791.897 643.995 788.536 627.415 793.409 614.863C798.283 602.31 811.929 592.507 815.277 579.397C818.626 566.287 811.441 551.062 813.228 537.661C815.015 524.26 825.987 511.619 826.236 498.079C826.486 484.539 815.852 471.48 814.428 458.041C813.003 444.602 820.676 429.605 817.602 416.368C814.528 403.132 801.244 393.176 796.633 380.383C792.11 367.793 795.934 351.339 789.823 339.167C783.838 327.26 768.48 320.699 760.957 309.325C753.435 297.951 753.272 281.054 744.713 270.921C735.965 260.572 719.446 257.912 709.724 248.881C700.002 239.85 695.653 223.346 684.844 215.569C674.035 207.791 657.29 209.134 645.607 202.725C633.923 196.316 625.925 181.395 613.542 176.455C608.959 174.819 604.115 174.067 599.259 174.238C594.086 174.238 588.75 174.72 583.589 174.72C579.797 174.813 576.009 174.413 572.318 173.529C559.397 170.122 548.225 157.582 534.992 155.796C533.791 155.633 532.58 155.553 531.368 155.555C519.384 155.555 506.801 162.877 494.78 162.877H494.355C481.996 162.699 469.2 154.491 456.767 154.491V154.555Z" fill="black"/>
</g>
<g opacity="0.15">
<path d="M499.653 111.464H500.49C508.513 111.692 516.485 115.264 524.233 118.633C530.768 121.534 537.529 124.523 544.401 125.574C546.756 125.916 549.133 126.081 551.512 126.068C556.31 125.972 561.099 125.604 565.857 124.966C570.487 124.349 575.147 123.989 579.815 123.89C583.367 123.829 586.91 124.255 590.349 125.156C598.034 127.322 604.92 132.667 611.592 137.823C617.278 142.23 623.151 146.79 629.612 149.488C636.072 152.186 643.432 153.149 650.543 154.073C658.852 155.163 667.45 156.277 674.397 160.217C681.345 164.156 686.744 170.996 691.992 177.608C696.49 183.282 701.126 189.147 706.8 193.339C712.473 197.532 719.296 200.204 725.981 202.814C733.816 205.879 741.926 209.045 747.762 214.581C753.597 220.116 757.184 228.007 760.707 235.695C763.744 242.295 766.88 249.122 771.404 254.594C775.928 260.066 781.876 264.258 787.649 268.387C794.559 273.289 801.694 278.356 806.068 285.208C810.442 292.061 811.916 300.079 813.566 308.742C814.94 315.924 816.365 323.347 819.476 329.819C822.5 336.076 827.324 341.687 831.972 347.096C837.52 353.543 843.219 360.206 845.918 367.97C848.617 375.735 848.167 384.563 847.755 393.113C847.405 400.295 847.055 407.73 848.517 414.532C850.041 421.561 853.515 428.287 856.777 434.798C860.775 442.638 864.562 449.997 865.299 457.99C866.036 465.982 863.55 474.57 861.138 482.753C859.101 489.668 856.989 496.812 856.802 503.817C856.614 510.821 858.326 518.282 859.988 525.35C861.925 533.595 863.937 542.12 862.75 550.049C861.563 557.978 857.152 565.641 852.878 572.975C849.242 579.207 845.493 585.641 843.631 592.469C841.769 599.296 841.707 606.845 841.644 614.115C841.582 622.602 841.519 631.38 838.495 638.815C835.471 646.25 829.41 652.558 823.5 658.638C818.501 663.831 813.316 669.201 809.892 675.395C806.468 681.589 804.656 688.847 802.906 695.889C800.845 704.122 798.72 712.647 794.009 719.183C789.298 725.719 781.988 730.291 774.878 734.775C768.78 738.575 762.482 742.603 757.683 747.796C752.885 752.989 749.474 759.538 746.112 765.922C742.163 773.445 738.077 781.235 731.929 786.454C725.781 791.672 718.034 794.168 709.724 796.903C702.876 799.145 695.791 801.476 689.868 805.377C683.944 809.279 679.171 814.712 674.422 820.07C668.774 826.403 662.939 833.003 655.678 836.536C648.656 840.007 640.471 840.602 631.799 841.236C624.576 841.768 617.103 842.312 610.355 844.694C603.608 847.075 597.422 851.331 591.436 855.46C584.251 860.425 577.466 865.099 569.831 866.796C567.251 867.347 564.62 867.615 561.983 867.594C556.287 867.407 550.616 866.746 545.026 865.618C539.381 864.467 533.65 863.798 527.894 863.617C526.52 863.617 525.183 863.68 523.92 863.807C516.885 864.478 509.9 867.1 503.152 869.646C495.654 872.484 487.794 875.422 480.197 875.422H479.347C471.337 875.194 463.365 871.622 455.605 868.253C449.069 865.352 442.309 862.363 435.449 861.312C433.094 860.964 430.717 860.799 428.338 860.818C423.536 860.914 418.743 861.282 413.98 861.92C409.33 862.544 404.65 862.908 399.96 863.009C396.408 863.069 392.865 862.643 389.426 861.743C381.753 859.577 374.855 854.231 368.183 849.076C362.497 844.668 356.611 840.108 350.151 837.41C343.69 834.713 336.33 833.75 329.22 832.825C320.91 831.736 312.313 830.621 305.378 826.682C298.442 822.743 293.019 815.903 287.771 809.278C283.285 803.617 278.636 797.752 272.975 793.56C267.315 789.367 260.479 786.694 253.782 784.085C245.947 781.02 237.849 777.853 232.001 772.318C226.153 766.783 222.579 758.892 219.055 751.203C216.031 744.604 212.895 737.777 208.371 732.305C203.847 726.833 197.899 722.641 192.064 718.511C185.166 713.61 178.031 708.543 173.645 701.69C169.259 694.838 167.797 686.82 166.147 678.156C164.76 670.975 163.335 663.552 160.224 657.08C157.212 650.822 152.376 645.211 147.728 639.803C142.167 633.356 136.481 626.693 133.77 618.929C131.058 611.164 131.533 602.336 131.945 593.786C132.283 586.604 132.645 579.169 131.171 572.354C129.659 565.337 126.172 558.611 122.923 552.088C118.912 544.235 115.138 536.825 114.401 528.896C113.664 520.967 116.138 512.316 118.55 504.133C120.599 497.218 122.698 490.074 122.898 483.069C123.098 476.065 121.586 468.655 119.962 461.6C118.025 453.354 116.026 444.83 117.2 436.9C118.375 428.971 122.811 421.308 127.072 413.974C130.708 407.742 134.457 401.308 136.319 394.481C138.181 387.654 138.256 380.105 138.306 372.834C138.306 364.348 138.443 355.57 141.467 348.135C144.491 340.7 150.552 334.392 156.463 328.312C161.461 323.119 166.659 317.735 170.083 311.554C173.507 305.373 175.307 298.103 177.069 291.06C179.118 282.827 181.255 274.302 185.953 267.767C190.652 261.231 197.987 256.646 205.085 252.174C211.183 248.374 217.481 244.347 222.292 239.153C227.103 233.96 230.501 227.412 233.85 221.028C237.812 213.504 241.898 205.714 248.046 200.496C254.194 195.277 261.941 192.782 270.239 190.046C277.087 187.804 284.172 185.473 290.095 181.572C296.018 177.671 300.792 172.224 305.553 166.879C311.188 160.546 317.024 153.947 324.297 150.413C331.319 146.942 339.504 146.347 348.164 145.714C355.399 145.182 362.859 144.637 369.607 142.256C376.355 139.875 382.378 135.53 388.401 131.413C395.586 126.461 402.372 121.787 410.007 120.09C412.591 119.539 415.226 119.271 417.867 119.292C423.575 119.476 429.26 120.137 434.861 121.268C440.507 122.415 446.238 123.08 451.993 123.256C453.368 123.256 454.705 123.256 455.98 123.079C463.015 122.408 469.988 119.786 476.736 117.24C484.233 114.402 492.093 111.464 499.703 111.464M499.703 110.197C485.07 110.197 470.637 120.406 455.855 121.825C454.605 121.939 453.293 121.99 451.993 121.99C440.922 121.99 429.151 118.025 417.917 118.025C415.187 118.004 412.464 118.284 409.794 118.861C395.274 122.066 383.553 135.935 369.12 141.002C354.687 146.068 337.018 142.598 323.672 149.21C310.026 155.961 301.854 172.288 289.358 180.508C276.649 188.868 258.63 189.805 247.184 199.508C235.737 209.21 231.539 227.184 221.317 238.254C211.095 249.324 193.726 254.72 184.891 266.994C176.056 279.268 176.194 297.659 168.871 310.934C161.548 324.208 145.978 333.556 140.255 347.666C134.532 361.776 139.093 379.446 135.069 394.151C131.046 408.857 118.162 421.612 115.913 436.723C113.664 451.834 122.286 467.819 121.861 483.133C121.436 498.256 111.952 513.836 113.364 529.124C114.763 544.159 126.922 557.674 130.159 572.709C133.332 587.415 127.797 604.844 132.795 619.423C137.794 634.002 152.789 644.185 159.324 657.713C165.985 671.545 164.722 689.797 172.832 702.463C181.08 715.332 198.062 721.589 207.646 733.192C217.231 744.794 220.455 762.958 231.389 773.319C242.323 783.68 260.367 785.694 272.476 794.662C284.584 803.629 291.907 820.412 304.965 827.86C318.024 835.308 335.98 832.851 349.876 838.652C363.771 844.453 374.768 858.918 389.276 863.047C392.818 863.993 396.472 864.445 400.135 864.39C409.419 864.39 419.191 862.199 428.513 862.199C430.829 862.186 433.143 862.347 435.436 862.68C450.231 864.934 464.339 876.372 479.447 876.803H480.322C494.942 876.803 509.375 866.594 524.158 865.175C525.407 865.061 526.72 864.998 528.019 864.998C539.091 864.998 550.874 868.975 562.108 868.975C564.838 868.996 567.561 868.716 570.231 868.139C584.739 864.934 596.472 851.065 610.893 845.998C625.313 840.932 642.995 844.39 656.341 837.79C669.986 831.039 678.159 814.712 690.667 806.492C703.176 798.271 721.395 797.195 732.841 787.492C744.288 777.79 748.486 759.816 758.708 748.746C768.93 737.676 786.287 732.28 795.134 720.006C803.981 707.732 803.756 689.366 811.091 676.092C818.427 662.817 833.984 653.47 839.707 639.359C845.43 625.249 840.882 607.58 844.893 592.874C848.904 578.168 861.8 565.413 864.049 550.302C866.299 535.191 857.689 519.206 858.114 503.893C858.539 488.579 868.023 473.19 866.599 457.901C865.199 442.866 853.04 429.351 849.804 414.316C846.63 399.611 852.166 382.182 847.167 367.603C842.169 353.024 827.236 342.827 820.676 329.325C814.015 315.493 815.277 297.241 807.168 284.575C798.933 271.706 781.951 265.449 772.354 253.846C762.757 242.244 759.545 224.08 748.611 213.719C737.677 203.358 719.633 201.344 707.537 192.377C695.441 183.409 688.106 166.626 675.047 159.178C661.989 151.73 644.045 154.187 630.137 148.386C616.228 142.585 605.257 128.12 590.749 123.991C587.202 123.046 583.545 122.594 579.878 122.648C570.593 122.648 560.821 124.84 551.512 124.84C549.195 124.853 546.882 124.692 544.589 124.358C529.731 122.078 515.623 110.641 500.528 110.197H499.703Z" fill="black"/>
</g>
<g opacity="0.15">
<path d="M503.902 242.282H504.677C509.488 242.561 514.061 245.664 518.897 248.944C523.258 251.908 527.782 254.974 532.643 255.886C533.778 256.083 534.927 256.18 536.079 256.177C540 255.999 543.89 255.378 547.675 254.328C551.321 253.304 555.068 252.696 558.847 252.516C560.437 252.494 562.021 252.716 563.545 253.175C568.106 254.619 571.793 258.723 575.691 263.055C579.253 267.019 582.927 271.111 587.475 273.188C592.024 275.265 597.472 275.316 602.783 275.366C608.569 275.442 614.029 275.506 618.14 278.001C622.252 280.496 625.163 285.766 627.85 290.769C630.349 295.405 632.848 300.18 636.697 303.182C640.546 306.184 645.857 307.653 650.942 308.983C656.578 310.465 661.901 311.858 665.313 315.316C668.724 318.774 670.311 324.525 671.673 330.022C672.923 335.088 674.348 340.421 677.347 344.297C680.346 348.173 685.144 350.858 689.78 353.391C694.916 356.203 699.777 358.863 702.276 363.081C704.775 367.299 704.875 372.91 704.95 378.838C705.025 384.145 705.1 389.63 707.112 394.139C709.124 398.648 713.123 402.347 717.009 405.906C721.333 409.883 725.419 413.645 726.881 418.357C728.343 423.069 727.093 428.49 725.781 434.278C724.606 439.459 723.394 444.804 724.282 449.693C725.169 454.583 728.193 459.079 731.117 463.474C734.391 468.389 737.49 473.038 737.79 478.003C738.09 482.968 735.603 487.87 732.979 493.139C730.605 497.889 728.155 502.803 727.868 507.781C727.581 512.759 729.43 517.8 731.217 522.753C733.154 528.098 735.153 533.633 734.266 538.548C733.379 543.462 729.767 547.541 726.019 552C722.582 556.04 719.021 560.233 717.546 565.033C716.072 569.834 716.697 575.09 717.271 580.309C717.884 585.983 718.521 591.848 716.484 596.446C714.447 601.044 709.699 604.476 705.113 607.782C700.889 610.835 696.515 613.989 694.041 618.156C691.567 622.323 690.767 627.947 690.08 633.242C689.318 639.068 688.593 644.641 685.631 648.441C682.67 652.241 677.197 654.546 671.973 656.636C667.137 658.587 662.139 660.588 658.715 664.059C655.291 667.529 653.254 672.71 651.33 677.662C649.193 683.16 647.181 688.353 643.37 691.38C639.559 694.407 634.035 695.18 628.225 695.991C623.051 696.7 617.703 697.422 613.529 699.981C609.356 702.539 606.207 707.036 603.183 711.38C599.809 716.206 596.61 720.766 592.174 722.78C589.732 723.799 587.102 724.274 584.464 724.173C581.781 724.116 579.103 723.917 576.441 723.578C573.687 723.232 570.918 723.029 568.144 722.97C565.79 722.924 563.442 723.245 561.184 723.92C556.523 725.389 552.436 728.986 548.488 732.457C544.064 736.346 539.89 740.057 535.079 740.905C534.255 741.059 533.418 741.135 532.58 741.133C528.494 741.133 524.008 739.487 519.672 737.891C515.111 736.219 510.387 734.496 505.839 734.496H504.739C499.891 734.813 495.092 737.296 490.444 739.702C485.795 742.109 480.759 744.781 476.098 744.781H475.336C470.513 744.49 465.951 741.399 461.116 738.119C456.742 735.155 452.218 732.077 447.37 731.178C446.231 730.98 445.077 730.883 443.921 730.886C440.004 731.064 436.118 731.684 432.337 732.736C428.691 733.758 424.944 734.366 421.166 734.547C419.576 734.57 417.991 734.348 416.467 733.888C411.894 732.444 408.207 728.34 404.309 724.009C400.76 720.044 397.073 715.953 392.525 713.875C387.976 711.798 382.528 711.748 377.23 711.697C371.432 711.621 365.983 711.558 361.872 709.062C357.761 706.567 354.837 701.298 352.15 696.282C349.651 691.659 347.152 686.883 343.303 683.869C339.454 680.854 334.143 679.41 329.058 678.08C323.422 676.598 318.111 675.205 314.687 671.747C311.263 668.289 309.689 662.539 308.327 657.042C307.015 651.975 305.653 646.643 302.666 642.767C299.679 638.891 294.856 636.231 290.245 633.71C285.122 630.898 280.248 628.238 277.749 624.02C275.25 619.803 275.137 614.191 275.062 608.263C274.987 602.956 274.925 597.472 272.913 592.963C270.901 588.453 266.89 584.755 263.004 581.196C258.68 577.218 254.594 573.456 253.132 568.744C251.67 564.033 252.919 558.611 254.231 552.823C255.406 547.642 256.631 542.297 255.731 537.408C254.831 532.519 251.82 528.022 248.908 523.627C245.622 518.712 242.535 514.064 242.223 509.099C241.91 504.133 244.41 499.219 247.034 493.899C249.408 489.162 251.857 484.247 252.157 479.269C252.457 474.291 250.583 469.25 248.796 464.298C246.871 458.953 244.872 453.417 245.759 448.503C246.646 443.588 250.195 439.497 253.994 435.038C257.43 430.985 260.992 426.805 262.466 422.005C263.941 417.204 263.316 411.948 262.754 406.729C262.141 401.055 261.504 395.19 263.541 390.58C265.578 385.969 270.314 382.562 274.912 379.256C279.136 376.203 283.497 373.049 285.984 368.882C288.471 364.715 289.245 359.091 289.945 353.797C290.707 347.957 291.42 342.397 294.381 338.597C297.343 334.797 302.816 332.492 308.039 330.389C312.875 328.451 317.886 326.45 321.298 322.979C324.709 319.509 326.758 314.328 328.683 309.376C330.82 303.878 332.831 298.685 336.643 295.658C340.454 292.631 345.99 291.858 351.788 291.047C356.961 290.338 362.322 289.616 366.483 287.058C370.644 284.499 373.806 280.002 376.842 275.658C380.216 270.832 383.403 266.272 387.839 264.258C390.281 263.239 392.91 262.764 395.549 262.865C398.248 262.921 400.943 263.12 403.621 263.46C406.375 263.807 409.144 264.01 411.919 264.068C414.273 264.112 416.62 263.791 418.879 263.118C423.54 261.649 427.626 258.052 431.575 254.581C435.986 250.692 440.172 246.981 444.971 246.12C445.796 245.977 446.632 245.905 447.47 245.905C451.556 245.905 456.042 247.551 460.391 249.147C464.952 250.819 469.663 252.542 474.224 252.542H475.323C480.172 252.225 484.97 249.742 489.606 247.336C494.242 244.929 499.241 242.345 503.902 242.345M503.902 241.079C494.305 241.079 484.745 250.667 475.248 251.275H474.224C465.564 251.275 456.092 244.638 447.47 244.638C446.548 244.635 445.628 244.716 444.721 244.879C435.024 246.703 427.864 258.938 418.479 261.915C416.341 262.548 414.121 262.847 411.894 262.801C406.595 262.801 400.847 261.598 395.561 261.598C392.746 261.504 389.943 262.018 387.339 263.105C378.367 267.209 374.281 280.838 365.846 285.981C357.411 291.123 343.665 288.514 335.855 294.67C328.045 300.826 327.383 314.936 320.385 322.093C313.388 329.249 299.467 329.908 293.369 337.824C287.271 345.741 290.008 359.585 284.884 368.223C279.761 376.862 266.453 380.89 262.391 390.073C258.33 399.256 264.153 412.214 261.267 421.637C258.305 431.264 246.271 438.547 244.51 448.237C242.748 457.927 251.47 469.25 250.895 479.155C250.32 489.06 240.348 499.181 240.973 509.099C241.598 519.016 252.707 527.769 254.494 537.547C256.281 547.326 248.983 559.523 251.932 569.036C254.881 578.548 267.715 584.299 271.763 593.393C275.812 602.488 271.551 616.041 276.662 624.59C281.773 633.14 295.556 635.585 301.654 643.463C307.752 651.342 306.777 665.477 313.775 672.596C320.773 679.714 334.693 678.638 342.516 684.819C350.338 691 352.675 704.908 361.197 710.152C369.72 715.395 382.89 710.899 391.988 715.041C401.085 719.183 406.795 732.115 416.117 735.003C417.762 735.506 419.473 735.749 421.191 735.725C428.526 735.725 436.711 732.064 443.946 732.064C445.027 732.054 446.106 732.148 447.17 732.343C456.929 734.142 465.514 745.377 475.286 745.959H476.123C485.72 745.959 495.28 736.371 504.789 735.763C505.126 735.763 505.464 735.763 505.814 735.763C514.473 735.763 523.945 742.4 532.555 742.4C533.477 742.403 534.397 742.323 535.304 742.159C545.001 740.335 552.161 728.1 561.546 725.123C563.684 724.488 565.904 724.189 568.131 724.237C573.417 724.237 579.165 725.503 584.451 725.503C587.27 725.598 590.077 725.084 592.686 723.996C601.646 719.892 605.732 706.263 614.167 701.121C622.602 695.978 636.36 698.587 644.157 692.431C651.955 686.275 652.629 672.165 659.615 665.009C666.6 657.852 680.533 657.194 686.631 649.264C692.729 641.335 689.993 627.516 695.116 618.865C700.239 610.214 713.548 606.199 717.609 597.016C721.67 587.833 715.834 574.875 718.733 565.451C721.682 555.825 733.729 548.542 735.478 538.852C737.227 529.162 728.53 517.838 729.105 507.933C729.68 498.028 739.639 487.908 739.027 477.99C738.415 468.072 727.293 459.32 725.494 449.541C723.694 439.763 731.017 427.477 728.055 417.99C725.094 408.502 712.273 402.701 708.224 393.607C704.176 384.512 708.424 370.959 703.313 362.41C698.202 353.86 684.419 351.415 678.321 343.537C672.223 335.658 673.198 321.523 666.188 314.404C659.177 307.286 645.269 308.362 637.447 302.181C629.624 296 627.275 282.092 618.703 276.848C610.13 271.605 597.022 276.101 587.913 271.959C578.803 267.817 573.205 254.923 563.908 252.06C562.287 251.565 560.602 251.322 558.909 251.338C551.574 251.338 543.377 254.999 536.142 254.999C535.065 255.003 533.99 254.91 532.93 254.72C523.171 252.909 514.573 241.687 504.814 241.104H503.964L503.902 241.079Z" fill="black"/>
</g>
<circle cx="492" cy="493.525" r="36.069" fill="black"/>
<circle cx="492" cy="493.525" r="1.97388" fill="white"/>
</g>
<defs>
<linearGradient id="paint0_linear_17_164" x1="490.006" y1="-0.000143929" x2="490.006" y2="988.748" gradientUnits="userSpaceOnUse">
<stop stop-color="#FAFF00"/>
<stop offset="0.5" stop-color="#FF773C" stop-opacity="0.5"/>
<stop offset="1" stop-opacity="0"/>
</linearGradient>
<clipPath id="clip0_17_164">
<rect width="980" height="987" fill="white"/>
</clipPath>
</defs>
</svg>
