<svg width="1428" height="1289" viewBox="0 0 1428 1289" fill="none" xmlns="http://www.w3.org/2000/svg">
<g opacity="0.5" clip-path="url(#clip0_17_155)">
<path d="M970.599 131.571C952.278 120.993 938.343 102.149 919.384 94.0105C899.992 85.7146 876.711 88.7489 856.838 82.9679C836.629 77.1009 818.585 62.1165 798.109 58.7952C777.391 55.4413 755.514 63.9762 734.751 63.1573C713.987 62.3384 692.682 52.1204 671.928 53.8218C651.175 55.5232 631.876 69.0485 611.388 73.2018C590.9 77.355 568.038 72.5321 548.198 79.1421C528.358 85.7521 512.98 103.439 494.117 112.417C475.254 121.396 451.823 122.045 434.107 133.23C416.392 144.414 405.776 165.204 389.5 178.438C373.427 191.558 350.815 197.894 336.264 213.081C321.931 228.023 316.525 250.849 303.865 267.729C291.453 284.258 271.022 295.818 260.448 314.134C249.874 332.449 250.057 355.957 241.952 374.911C233.664 394.315 216.599 410.41 210.825 430.294C204.942 450.5 210.721 473.213 207.442 493.719C204.076 514.453 191.388 534.186 190.594 554.954C189.799 575.723 200.849 596.572 202.578 617.378C204.306 638.184 196.6 660.454 200.801 680.851C205.002 701.249 220.699 718.75 227.305 738.561C233.91 758.372 231.799 781.743 240.791 800.68C249.783 819.617 269.109 832.703 280.287 850.418C291.465 868.133 294.898 891.25 308.189 907.47C321.303 923.541 343.313 931.683 358.487 946.244C373.43 960.563 382.431 982.236 399.323 994.889C415.837 1007.26 439.137 1009.88 457.459 1020.46C475.78 1031.04 489.715 1049.88 508.674 1058.02C528.066 1066.32 551.347 1063.28 571.209 1069.06C591.417 1074.93 609.462 1089.91 629.937 1093.23C650.667 1096.59 672.532 1088.05 693.307 1088.88C714.082 1089.7 735.365 1099.91 756.13 1098.21C776.895 1096.52 796.17 1082.98 816.67 1078.83C837.169 1074.68 860.089 1079.54 879.906 1072.92C899.723 1066.29 915.135 1048.63 934.033 1039.67C952.931 1030.71 976.328 1030.04 994.077 1018.8C1011.83 1007.56 1022.42 986.831 1038.68 973.591C1054.76 960.47 1077.37 954.134 1091.93 938.955C1106.25 924.006 1111.67 901.186 1124.32 884.3C1136.69 867.78 1157.13 856.22 1167.71 837.893C1178.29 819.566 1178.1 796.069 1186.2 777.127C1194.49 757.73 1211.55 741.628 1217.33 721.751C1223.21 701.538 1217.38 678.799 1220.71 658.32C1224.08 637.592 1236.76 617.853 1237.55 597.084C1238.35 576.316 1227.27 555.464 1225.61 534.65C1223.94 513.836 1231.37 491.592 1227.2 471.148C1223.02 450.704 1207.3 433.25 1200.7 413.427C1194.1 393.604 1196.21 370.263 1187.21 351.319C1178.21 332.376 1158.89 319.296 1147.71 301.581C1136.54 283.866 1133.09 260.743 1119.8 244.523C1106.69 228.452 1084.69 220.317 1069.5 205.749C1054.62 191.463 1045.56 169.757 1028.68 157.111C1012.22 144.771 988.955 142.169 970.599 131.571ZM600.47 772.653C592.628 768.125 591.031 754.275 583.995 748.994C576.958 743.713 563.072 745.939 556.679 739.811C550.285 733.682 551.978 719.772 546.365 712.906C540.752 706.04 526.81 704.918 522.095 697.351C517.38 689.785 522.361 676.803 518.561 668.746C514.761 660.69 501.492 656.346 498.68 647.889C495.867 639.431 503.835 628.034 502.04 619.284C500.244 610.534 488.43 603.188 487.716 594.276C487.001 585.363 497.454 576.234 497.813 567.277C498.172 558.321 488.444 548.432 489.882 539.558C491.319 530.685 503.695 524.394 506.182 515.786C508.668 507.179 501.61 495.283 505.156 486.979C508.701 478.674 522.156 475.644 526.685 467.799C531.214 459.955 527.239 446.645 532.523 439.576C537.807 432.507 551.862 432.445 557.985 426.061C564.107 419.677 563.578 405.688 570.433 400.065C577.288 394.443 590.866 397.824 598.393 393.068C605.92 388.312 608.663 374.639 616.725 370.824C624.788 367.01 637.074 373.564 645.538 370.737C654.002 367.91 659.895 355.3 668.644 353.502C677.393 351.703 687.737 361.007 696.655 360.279C705.573 359.55 714.245 348.698 723.188 349.048C732.131 349.398 739.906 360.907 748.794 362.289C757.681 363.671 768.631 355.23 777.251 357.769C785.871 360.309 790.578 373.285 798.862 376.834C807.146 380.382 819.746 374.745 827.588 379.273C835.43 383.8 837.027 397.65 844.052 402.924C851.078 408.199 864.986 405.986 871.368 412.108C877.75 418.23 876.081 432.153 881.694 439.019C887.307 445.885 901.237 447.001 905.952 454.567C910.667 462.133 905.686 475.116 909.492 483.16C913.299 491.205 926.543 495.565 929.367 504.03C932.191 512.494 924.198 523.908 925.982 532.651C927.766 541.395 939.591 548.747 940.318 557.666C941.044 566.585 930.568 575.701 930.209 584.658C929.85 593.614 939.578 603.503 938.14 612.377C936.703 621.25 924.327 627.541 921.84 636.149C919.354 644.756 926.412 656.652 922.866 664.956C919.321 673.261 905.866 676.291 901.344 684.124C896.821 691.957 900.795 705.296 895.499 712.359C890.203 719.421 876.131 719.566 870.036 725.904C863.939 732.242 864.442 746.277 857.599 751.906C850.755 757.535 837.154 754.141 829.627 758.897C822.1 763.653 819.351 777.338 811.3 781.159C803.249 784.98 790.959 778.378 782.495 781.205C774.031 784.031 768.15 796.649 759.389 798.44C750.629 800.232 740.297 790.934 731.39 791.669C722.483 792.405 713.789 803.244 704.857 802.9C695.926 802.557 688.15 791.048 679.252 789.659C670.353 788.27 659.415 796.718 650.795 794.179C642.175 791.64 637.468 778.663 629.184 775.115C620.899 771.566 608.301 777.174 600.47 772.653Z" fill="url(#paint0_linear_17_155)"/>
</g>
<defs>
<linearGradient id="paint0_linear_17_155" x1="974.266" y1="125.219" x2="452.824" y2="1028.38" gradientUnits="userSpaceOnUse">
<stop stop-color="#439E7C"/>
<stop offset="0.5" stop-color="#FF773C" stop-opacity="0.5"/>
<stop offset="1" stop-opacity="0"/>
</linearGradient>
<clipPath id="clip0_17_155">
<rect width="1047.44" height="1041.04" fill="white" transform="translate(520.705 -136.645) rotate(30)"/>
</clipPath>
</defs>
</svg>
