<?xml version="1.0" encoding="utf-8"?>
<!-- Generator: Adobe Illustrator 26.2.1, SVG Export Plug-In . SVG Version: 6.00 Build 0)  -->
<svg version="1.1" id="Layer_1" xmlns="http://www.w3.org/2000/svg" xmlns:xlink="http://www.w3.org/1999/xlink" x="0px" y="0px"
	 viewBox="0 0 1436 1298" style="enable-background:new 0 0 1436 1298;" xml:space="preserve">
<style type="text/css">
	.st0{opacity:0.5;clip-path:url(#SVGID_00000119810377524784269150000002263053274454626716_);}
	.st1{fill:url(#SVGID_00000008133382072452523540000002312313005830633880_);}
</style>
<g>
	<defs>
		
			<rect id="SVGID_1_" x="135.8" y="66.5" transform="matrix(0.5 -0.866 0.866 0.5 -201.2357 940.4874)" width="1156.1" height="1156.1"/>
	</defs>
	<clipPath id="SVGID_00000057841598063590557110000010447484253572989368_">
		<use xlink:href="#SVGID_1_"  style="overflow:visible;"/>
	</clipPath>
	<g style="opacity:0.5;clip-path:url(#SVGID_00000057841598063590557110000010447484253572989368_);">
		
			<linearGradient id="SVGID_00000153664319868100442140000006861605414173116032_" gradientUnits="userSpaceOnUse" x1="1004.1216" y1="1153.3853" x2="420.0519" y2="141.7511" gradientTransform="matrix(1 0 0 -1 1.735467e-05 1298)">
			<stop  offset="0" style="stop-color:#439E7C"/>
			<stop  offset="0.5" style="stop-color:#FF773C;stop-opacity:0.5"/>
			<stop  offset="1" style="stop-color:#295D64"/>
		</linearGradient>
		<path style="fill:url(#SVGID_00000153664319868100442140000006861605414173116032_);" d="M999.9,151.7
			c-20.3-11.7-35.6-32.7-56.6-41.6c-21.5-9.1-47.3-5.6-69.3-12c-22.4-6.4-42.3-23.1-65-26.6c-23-3.6-47.3,6-70.3,5.2
			c-23-0.8-46.6-12.1-69.7-10c-23,2-44.5,17.2-67.3,22c-22.8,4.8-48.1-0.5-70.2,7c-22.1,7.5-39.2,27.3-60.2,37.5
			c-21,10.1-47,11-66.7,23.6c-19.7,12.6-31.6,35.9-49.8,50.7c-17.9,14.7-43,22-59.3,39c-16,16.8-22.1,42.3-36.3,61.2
			c-13.9,18.5-36.6,31.6-48.5,52.1c-11.8,20.5-11.8,46.8-20.9,68c-9.3,21.7-28.3,39.8-34.9,62c-6.6,22.6-0.4,47.9-4.1,70.8
			c-3.9,23.2-18.1,45.3-19.1,68.5c-1,23.2,11.1,46.4,12.9,69.6c1.8,23.2-6.9,48.1-2.4,70.9c4.5,22.8,21.9,42.2,29.1,64.3
			c7.2,22.1,4.7,48.2,14.6,69.3c9.9,21.1,31.2,35.6,43.5,55.3c12.3,19.7,16,45.5,30.6,63.5c14.5,17.9,38.8,26.8,55.6,43
			c16.5,15.9,26.4,40,45,54.1c18.3,13.7,44.1,16.5,64.4,28.2c20.3,11.7,35.6,32.7,56.6,41.6c21.5,9.1,47.3,5.6,69.3,11.9
			c22.4,6.4,42.3,23.1,65,26.6c23,3.6,47.3-6,70.4-5.2c23,0.8,46.6,12.1,69.7,10c23.1-2,44.5-17.2,67.3-22c22.8-4.8,48.2,0.5,70.2-7
			c22-7.5,39.2-27.3,60.3-37.4c21-10.1,47-11,66.8-23.7c19.8-12.7,31.6-35.9,49.8-50.7c17.9-14.7,43-22,59.3-39
			c16-16.8,22.1-42.3,36.3-61.2c13.8-18.5,36.6-31.6,48.4-52.1c11.8-20.5,11.8-46.8,20.9-68c9.3-21.7,28.4-39.8,34.9-62
			c6.6-22.6,0.3-48,4.1-70.9c3.9-23.2,18.1-45.3,19.1-68.5c1-23.2-11.2-46.4-12.9-69.6c-1.7-23.2,6.7-48.1,2.1-70.9
			c-4.5-22.8-21.9-42.2-29.1-64.3c-7.2-22.1-4.7-48.2-14.6-69.3c-9.9-21.1-31.2-35.6-43.5-55.3c-12.3-19.7-16-45.5-30.6-63.5
			c-14.5-17.9-38.8-26.8-55.6-43c-16.4-15.9-26.4-40-45-54.1C1046.1,166.2,1020.3,163.4,999.9,151.7z M585.4,869.8
			c-8.7-5-10.4-20.5-18.1-26.3c-7.8-5.9-23.2-3.3-30.3-10.1c-7.1-6.8-5.1-22.3-11.3-30c-6.2-7.6-21.7-8.8-26.8-17.2
			c-5.2-8.4,0.4-22.9-3.8-31.9c-4.2-9-18.9-13.7-21.9-23.2c-3.1-9.4,5.8-22.2,3.9-32c-1.9-9.8-15-17.9-15.7-27.8
			c-0.7-9.9,10.9-20.2,11.4-30.2c0.5-10-10.3-21-8.6-30.9c1.6-9.9,15.4-17,18.2-26.6c2.8-9.6-5-22.9-1-32.2c4-9.3,18.9-12.8,24-21.5
			s0.7-23.6,6.6-31.5c5.9-7.9,21.5-8.1,28.3-15.2c6.8-7.2,6.3-22.8,14-29.1c7.6-6.3,22.7-2.6,31.1-8c8.4-5.4,11.5-20.6,20.5-24.9
			c9-4.3,22.6,2.9,32-0.3c9.4-3.2,16-17.3,25.7-19.4c9.7-2.1,21.1,8.3,31,7.4c9.9-0.9,19.6-13,29.5-12.7
			c9.9,0.3,18.5,13.1,28.3,14.6c9.9,1.5,22.1-8,31.6-5.2c9.6,2.8,14.7,17.2,23.9,21.2c9.2,3.9,23.2-2.5,31.9,2.6
			c8.7,5,10.4,20.5,18.1,26.3c7.8,5.8,23.2,3.3,30.3,10.1c7,6.8,5.1,22.4,11.3,30c6.2,7.6,21.6,8.8,26.8,17.2
			c5.2,8.4-0.4,22.9,3.8,31.9c4.2,9,18.8,13.8,21.9,23.2c3.1,9.4-5.9,22.2-3.9,32c1.9,9.8,15,17.9,15.8,27.8
			c0.8,10-10.9,20.2-11.4,30.2c-0.5,10,10.3,21,8.6,30.9c-1.6,9.9-15.4,17-18.2,26.6c-2.8,9.6,5,22.9,1,32.2
			c-4,9.3-18.9,12.8-24,21.5c-5.1,8.8-0.7,23.6-6.7,31.6s-21.5,8.2-28.3,15.3c-6.8,7.1-6.3,22.8-14,29.1c-7.6,6.3-22.7,2.6-31.1,8
			c-8.4,5.4-11.5,20.7-20.5,25c-9,4.3-22.6-3-32,0.2c-9.4,3.2-16,17.3-25.7,19.4c-9.7,2.1-21.1-8.3-31-7.4
			c-9.9,0.9-19.6,13-29.5,12.7c-9.9-0.3-18.5-13.1-28.3-14.6c-9.9-1.5-22.1,8-31.6,5.2c-9.6-2.8-14.7-17.2-23.9-21.2
			C608,868.4,594,874.8,585.4,869.8z"/>
	</g>
</g>
</svg>
