<svg width="151" height="329" viewBox="0 0 151 329" fill="none" xmlns="http://www.w3.org/2000/svg">
<path d="M2.97479 118.533C6.5111 116.613 14.4828 121.953 23.6033 132.333C21.652 128.333 19.7939 124.143 18.0291 119.763C5.23244 87.7627 3.22453 58.0827 13.5438 53.4727C16.7404 52.0527 20.7563 53.2027 25.1417 56.4727C21.7652 25.6827 26.74 1.11266 37.0493 0.232657C47.9779 -0.707343 60.8245 25.3527 66.0191 58.7027C69.016 54.5127 72.3925 52.3627 75.9288 52.8527C87.3968 54.4327 96.2077 83.1727 95.6083 117.033C95.4919 126.163 94.5929 135.266 92.9211 144.243C95.5284 142.173 98.0258 141.403 100.164 142.193C107.955 145.063 110.153 168.743 104.999 195.083C99.8439 221.423 89.3948 240.393 81.6129 237.523C80.6647 237.137 79.8223 236.53 79.1554 235.753L64.3708 240.193C63.7715 242.433 62.8724 243.943 61.6836 244.583C54.8208 248.313 36.1103 223.123 19.8972 188.313C3.68405 153.503 -3.89806 122.263 2.97479 118.533Z" fill="url(#paint0_radial_1177_1740)"/>
<path d="M35.0904 115.002C39.7955 114.172 47.0779 121.592 53.9907 134.152C53.1316 129.782 52.4323 125.222 51.9229 120.512C48.2467 86.1723 56.1385 57.1723 69.5445 55.7323C73.7002 55.2823 77.9058 57.5423 81.8317 61.8823C88.5247 31.4223 102.67 9.32229 114.797 11.4423C127.644 13.6823 133.418 42.3423 127.874 75.7723C132.749 72.6123 137.354 71.5223 141.24 73.0123C153.837 77.8223 154.076 107.882 141.759 140.142C138.426 148.955 134.254 157.428 129.302 165.442C132.998 164.202 136.125 164.182 138.293 165.562C146.225 170.562 140.571 193.852 125.666 217.562C110.762 241.272 92.3408 256.592 84.3491 251.592C83.4252 250.981 82.664 250.154 82.1314 249.182H63.6606C62.2022 251.182 60.6638 252.342 59.0654 252.622C49.915 254.222 37.0883 224.712 30.5052 186.702C23.922 148.692 25.9299 116.592 35.0904 115.002Z" fill="url(#paint1_linear_1177_1740)"/>
<path d="M104.938 57.373C104.938 57.373 72.9711 208.373 75.4386 252.683" stroke="#0C2633" stroke-width="3" stroke-miterlimit="10" stroke-linecap="round"/>
<path d="M47.0878 251.193C47.3383 249.796 47.1899 248.357 46.6598 247.041C46.1296 245.725 45.2392 244.585 44.0909 243.753C43.5515 243.383 43.7812 242.373 44.4006 242.373H106.436C107.055 242.373 107.295 243.373 106.756 243.753C105.604 244.582 104.711 245.721 104.18 247.038C103.649 248.355 103.503 249.796 103.759 251.193C103.759 251.353 108.754 251.503 108.903 251.603C151.859 290.503 94.4984 325.783 91.5415 327.953C91.4532 328.023 91.3443 328.062 91.2318 328.063H59.6147C59.4994 328.06 59.3877 328.022 59.2951 327.953C56.3781 325.783 -0.982145 290.503 41.9431 251.593C42.063 251.503 47.0578 251.353 47.0878 251.193Z" fill="url(#paint2_linear_1177_1740)"/>
<path d="M82.5117 82.2227L94.9987 107.283" stroke="#0C2633" stroke-width="3" stroke-miterlimit="10" stroke-linecap="round"/>
<path d="M122.801 106.513L87.0879 151.973" stroke="#0C2633" stroke-width="3" stroke-miterlimit="10" stroke-linecap="round"/>
<path d="M49.5762 155.593L77.4372 218.603L124.588 180.503" stroke="#0C2633" stroke-width="3" stroke-miterlimit="10" stroke-linecap="round"/>
<path d="M47.3094 251.913H103.811V249.623H47.3094V251.913Z" fill="#E8E8E8"/>
<defs>
<radialGradient id="paint0_radial_1177_1740" cx="0" cy="0" r="1" gradientUnits="userSpaceOnUse" gradientTransform="translate(114.039 142.963) rotate(180) scale(108.887 109)">
<stop stop-color="#494F55"/>
<stop offset="0.56" stop-color="#474D53"/>
<stop offset="0.85" stop-color="#40484B"/>
<stop offset="1" stop-color="#394343"/>
</radialGradient>
<linearGradient id="paint1_linear_1177_1740" x1="175.524" y1="66.0623" x2="2.72546" y2="219.374" gradientUnits="userSpaceOnUse">
<stop stop-color="#497555"/>
<stop offset="0.56" stop-color="#497355"/>
<stop offset="0.85" stop-color="#496B55"/>
<stop offset="1" stop-color="#496355"/>
</linearGradient>
<linearGradient id="paint2_linear_1177_1740" x1="88.6245" y1="249.123" x2="56.3002" y2="329.43" gradientUnits="userSpaceOnUse">
<stop stop-color="#8C4448"/>
<stop offset="0.19" stop-color="#874447"/>
<stop offset="0.43" stop-color="#774245"/>
<stop offset="0.69" stop-color="#5E4042"/>
<stop offset="0.98" stop-color="#3A3D3D"/>
<stop offset="1" stop-color="#373D3D"/>
</linearGradient>
</defs>
</svg>
