<svg width="516" height="196" viewBox="0 0 516 196" fill="none" xmlns="http://www.w3.org/2000/svg">
<path d="M515.139 63.6389C515.142 60.3564 514.206 57.1417 512.443 54.374C510.679 51.6064 508.161 49.4014 505.185 48.0194C502.21 46.6374 498.902 46.136 495.651 46.5744C492.4 47.0129 489.342 48.3728 486.839 50.4938C485.547 48.0922 483.717 46.022 481.493 44.4451C479.269 42.8681 476.711 41.827 474.018 41.4031C471.326 40.9792 468.572 41.184 465.971 42.0014C463.371 42.8188 460.994 44.2268 459.028 46.1154C459.028 46.0454 459.028 45.9854 459.028 45.9254C459.028 42.8489 458.228 39.8253 456.706 37.1523C455.183 34.4794 452.992 32.2492 450.346 30.6815C447.701 29.1138 444.693 28.2626 441.619 28.2117C438.545 28.1608 435.511 28.9119 432.815 30.3911C431.693 21.8536 427.369 14.0622 420.72 8.59548C414.072 3.12879 405.595 0.395636 397.007 0.949792C388.42 1.50395 380.364 5.30397 374.472 11.5799C368.58 17.8559 365.292 26.1385 365.275 34.7495C365.275 34.9994 365.275 35.2494 365.275 35.4893C363.063 34.7854 360.731 34.537 358.42 34.7589C356.109 34.9808 353.867 35.6685 351.829 36.7805C349.791 37.8926 347.998 39.406 346.56 41.2295C345.122 43.0531 344.067 45.1491 343.46 47.3913C342.853 49.6335 342.706 51.9755 343.027 54.2762C343.348 56.5769 344.132 58.7888 345.33 60.7785C346.528 62.7682 348.116 64.4947 349.999 65.8538C351.882 67.213 354.02 68.1768 356.285 68.6871H514.4C514.896 67.0506 515.145 65.3491 515.139 63.6389Z" fill="#EEEEEE"/>
<path d="M386.493 171.7C386.504 161.703 383.496 151.937 377.864 143.682C372.231 135.426 364.238 129.066 354.931 125.435C345.624 121.804 335.438 121.071 325.707 123.333C315.977 125.595 307.157 130.747 300.403 138.112C299.084 130.94 296.018 124.204 291.477 118.501C286.935 112.798 281.059 108.303 274.367 105.415C267.676 102.527 260.376 101.334 253.114 101.942C245.852 102.551 238.852 104.941 232.734 108.903C231.986 101.735 229.229 94.9254 224.779 89.2589C220.33 83.5925 214.371 79.3003 207.588 76.8777C200.806 74.4552 193.477 74.0009 186.448 75.5675C179.419 77.134 172.975 80.6574 167.861 85.7312C165.596 77.0695 161.521 68.9867 155.906 62.0159C150.291 55.0452 143.262 49.3447 135.285 45.2905C127.307 41.2362 118.561 38.9203 109.624 38.4954C100.687 38.0706 91.7609 39.5464 83.4351 42.8256C75.1094 46.1047 67.5728 51.1128 61.3225 57.5195C55.0722 63.9262 50.2501 71.586 47.1742 79.9938C44.0983 88.4015 42.8385 97.3663 43.4778 106.297C44.1171 115.227 46.641 123.921 50.8831 131.804C46.3239 129.371 41.2702 128.011 36.1065 127.827C30.9428 127.644 25.8053 128.641 21.085 130.745C16.3648 132.848 12.1863 136.001 8.86762 139.964C5.54893 143.927 3.17753 148.595 1.93395 153.613C0.690368 158.632 0.607387 163.868 1.69132 168.923C2.77526 173.979 4.99754 178.72 8.18899 182.786C11.3804 186.853 15.4569 190.137 20.1081 192.388C24.7593 194.64 29.8626 195.8 35.0296 195.781H293.54C293.573 195.84 293.61 195.896 293.65 195.951H380.09C384.273 188.553 386.479 180.2 386.493 171.7Z" fill="#EEEEEE"/>
</svg>
