<svg width="425" height="235" viewBox="0 0 425 235" fill="none" xmlns="http://www.w3.org/2000/svg">
<path d="M88.1641 225.106C88.1603 218.686 89.9926 212.399 93.445 206.987C96.8974 201.574 101.826 197.262 107.649 194.559C113.472 191.856 119.946 190.875 126.308 191.731C132.671 192.588 138.655 195.246 143.556 199.392C146.084 194.686 149.667 190.628 154.025 187.537C158.382 184.446 163.395 182.404 168.673 181.573C173.95 180.742 179.348 181.144 184.445 182.746C189.541 184.349 194.198 187.109 198.05 190.811C198.05 190.691 198.05 190.571 198.05 190.452C198.049 184.433 199.616 178.517 202.596 173.288C205.577 168.059 209.867 163.696 215.046 160.63C220.225 157.563 226.113 155.898 232.131 155.798C238.149 155.699 244.089 157.168 249.366 160.063C251.512 143.331 259.949 128.044 272.96 117.31C285.972 106.575 302.583 101.197 319.417 102.269C336.251 103.342 352.045 110.784 363.59 123.083C375.134 135.382 381.562 151.615 381.568 168.484C381.568 168.973 381.568 169.483 381.568 169.942C385.866 168.672 390.373 168.273 394.827 168.768C399.28 169.264 403.59 170.643 407.503 172.826C411.416 175.009 414.854 177.952 417.615 181.481C420.376 185.011 422.404 189.056 423.581 193.38C424.758 197.704 425.059 202.219 424.468 206.661C423.876 211.103 422.404 215.382 420.136 219.247C417.869 223.112 414.853 226.485 411.265 229.169C407.676 231.853 403.588 233.793 399.24 234.876H89.6126C88.6495 231.709 88.1613 228.417 88.1641 225.106Z" fill="#EEEEEE"/>
<path d="M172.09 61.4615C172.092 57.899 171.199 54.3931 169.493 51.2656C167.787 48.138 165.323 45.4891 162.327 43.5619C159.331 41.6347 155.899 40.491 152.346 40.2358C148.792 39.9806 145.232 40.622 141.991 42.1012C141.105 36.5717 138.277 31.539 134.015 27.9066C129.753 24.2741 124.335 22.2797 118.735 22.2814C116.815 22.2853 114.902 22.5269 113.041 23.0007C111.108 16.3453 106.976 10.5414 101.32 6.53572C95.6646 2.53 88.8186 0.55878 81.8988 0.943545C74.979 1.32831 68.3937 4.04636 63.217 8.65439C58.0402 13.2624 54.5775 19.4885 53.3935 26.3173C49.7132 26.6794 46.2992 28.3977 43.8158 31.1379C41.3324 33.878 39.9571 37.4441 39.9575 41.1422C39.9575 41.1422 39.9575 41.2321 39.9575 41.2821C39.3117 41.195 38.6611 41.1483 38.0095 41.1422C34.4089 41.1434 30.9307 42.4499 28.2196 44.8194C25.5085 47.1889 23.7482 50.4609 23.2649 54.0291C20.397 52.2789 17.0213 51.5506 13.687 51.9624C10.3526 52.3742 7.25562 53.902 4.89971 56.2974C2.5438 58.6927 1.06754 61.8146 0.71102 65.1554C0.354496 68.4963 1.13867 71.8594 2.93603 74.698L2.64635 74.8179H167.365C170.426 71.0402 172.095 66.3241 172.09 61.4615Z" fill="#EEEEEE"/>
</svg>
