<svg width="1920" height="1120" viewBox="0 0 1920 1120" fill="none" xmlns="http://www.w3.org/2000/svg">
<path fill-rule="evenodd" clip-rule="evenodd" d="M1920 0H0V1078.17C0 1078.17 160.051 1120 480 1120C545.874 1120 616.417 1114.83 683.134 1109.95C806.265 1100.93 916.36 1092.87 960 1120C1008.22 1091.8 1182.01 1101.62 1348.22 1111.02C1428.55 1115.56 1507.11 1120 1568.86 1120C1757.03 1120 1920 1078.17 1920 1078.17V0ZM1759.58 65.3894H160.422V1012.78H1759.58V65.3894Z" fill="#2E2B3D"/>
<rect x="1789.46" y="382.812" width="102.328" height="314.374" fill="#232131" stroke="#58555E" stroke-width="3"/>
<rect x="1789.46" y="313.457" width="102.328" height="36.5151" fill="#060606" stroke="#58555E" stroke-width="3"/>
<circle cx="1840.63" cy="430.602" r="19" fill="#FFDC61" stroke="#7A7A7A" stroke-width="10"/>
<circle cx="1840.63" cy="503.534" r="19" fill="#CA9643" stroke="#7A7A7A" stroke-width="10"/>
<circle cx="1840.63" cy="576.466" r="19" fill="#CA9643" stroke="#7A7A7A" stroke-width="10"/>
<circle cx="1840.63" cy="649.398" r="19" fill="#CA9643" stroke="#7A7A7A" stroke-width="10"/>
<path d="M1836.25 322.616V339.714H1832.88V326.507L1828.82 327.796V325.136L1835.89 322.616H1836.25ZM1846.27 322.651V339.714H1842.76V322.651H1846.27ZM1853.07 329.94V332.683H1845.31V329.94H1853.07ZM1853.89 322.651V325.405H1845.31V322.651H1853.89Z" fill="#BB0000"/>
</svg>
