<svg width="407" height="205" viewBox="0 0 407 205" fill="none" xmlns="http://www.w3.org/2000/svg">
<path d="M383.746 69.8146C396.362 57.185 402.69 43.0433 397.88 38.2281C393.07 33.4129 378.943 39.7478 366.326 52.3773C353.71 65.0069 347.382 79.1486 352.192 83.9638C357.002 88.7789 371.129 82.4441 383.746 69.8146Z" fill="#61A694"/>
<path d="M184.593 95.6928C189.403 90.8776 183.075 76.7359 170.458 64.1064C157.842 51.4768 143.715 45.142 138.905 49.9571C134.095 54.7723 140.423 68.9141 153.039 81.5436C165.656 94.1732 179.783 100.508 184.593 95.6928Z" fill="#5EA190"/>
<path d="M62.3493 59.4225C62.3493 89.3625 65.7857 116.312 58.0637 118.652C50.3418 120.992 30.6323 101.472 21.6317 71.7825C12.631 42.0925 11.9518 19.0425 26.5366 14.6125C41.1214 10.1825 53.3486 29.7325 62.3493 59.4225Z" fill="#2F8A8F"/>
<path d="M122.746 74.973C111.758 93.273 95.2847 102.973 90.5297 100.103C85.7746 97.233 91.0292 80.463 97.6622 59.843C104.205 39.513 120.119 30.593 129.109 35.983C138.1 41.373 133.765 56.673 122.746 74.973Z" fill="#27817F"/>
<path d="M31.9215 67.3132C41.2018 82.7032 51.0915 95.8932 48.3244 98.5932C45.5573 101.293 30.5729 95.1732 17.3566 81.6732C4.14041 68.1732 -3.36178 56.4632 1.88276 51.3032C7.12729 46.1432 18.6553 53.8132 31.9215 67.3132Z" fill="#2F8A8F"/>
<path d="M103.536 72.4327C96.4534 102.633 78.0226 123.433 70.1708 121.533C62.3189 119.633 62.1191 94.1627 62.1191 62.6927C62.1191 31.6927 80.1504 12.2027 94.9949 15.6927C109.839 19.1827 110.619 42.2327 103.536 72.4327Z" fill="#5BA395"/>
<path d="M288.174 65.9726C288.174 83.1126 290.172 98.5426 285.717 99.8926C281.261 101.243 270.013 90.0526 264.858 73.0526C259.704 56.0526 259.314 42.8626 267.665 40.3226C276.017 37.7826 283.019 48.9826 288.174 65.9726Z" fill="#2F8A8F"/>
<path d="M256.977 76.1432C242.572 100.093 221.015 112.793 214.801 109.033C208.588 105.273 215.461 83.3232 224.142 56.3332C232.703 29.7232 253.551 18.0132 265.319 25.1132C277.086 32.2132 271.432 52.1932 256.977 76.1432Z" fill="#27817F"/>
<path d="M375.722 59.5925C362.516 88.1425 340.029 105.012 332.647 101.592C325.264 98.1725 326.653 71.5925 336.783 41.5425C346.772 11.7325 364.983 -4.93753 378.949 1.54247C392.914 8.02247 388.938 31.0525 375.722 59.5925Z" fill="#61A694"/>
<path d="M328.901 67.0626C314.496 91.0026 292.939 103.703 286.725 99.9526C280.512 96.2026 287.384 74.2426 296.065 47.2526C304.626 20.6426 325.475 8.93256 337.242 16.0226C349.01 23.1126 343.356 43.1126 328.901 67.0626Z" fill="#27817F"/>
<path d="M195.041 96.2532H180.656C180.656 96.2532 149.908 45.0132 151.596 27.1532C153.285 9.29321 163.734 4.77321 168.808 6.15321C173.883 7.53321 189.677 16.6032 195.041 58.1532C195.041 58.1532 205.47 29.0632 215.35 34.9932C225.23 40.9232 219.955 59.9932 212.433 70.5032C204.911 81.0132 210.025 93.7132 210.025 93.7132L195.041 96.2532Z" fill="#5EA190"/>
<path d="M28.8848 28.123L56.4461 98.9731" stroke="#0C2633" stroke-width="3" stroke-linecap="round" stroke-linejoin="round"/>
<path d="M169.088 30.2324L192.384 102.602" stroke="#0C2633" stroke-width="3" stroke-linecap="round" stroke-linejoin="round"/>
<path d="M91.3587 42.7529L65.166 114.113" stroke="#0C2633" stroke-width="3" stroke-linecap="round" stroke-linejoin="round"/>
<path d="M249.994 46.9531L227.518 89.9832" stroke="#0C2633" stroke-width="3" stroke-linecap="round" stroke-linejoin="round"/>
<path d="M273.34 62.543L284.368 93.243" stroke="#0C2633" stroke-width="3" stroke-linecap="round" stroke-linejoin="round"/>
<path d="M372.857 14.8525L341.779 86.9925" stroke="#0C2633" stroke-width="3" stroke-linecap="round" stroke-linejoin="round"/>
<path d="M382.825 80.0332H9.23438L14.8485 99.2332H377.221L382.825 80.0332Z" fill="#D3A153"/>
<path d="M45.6266 204.543H346.443L375.263 105.923H16.8066L45.6266 204.543Z" fill="url(#paint0_linear_1177_1770)"/>
<path d="M14.8477 99.2324L16.8056 105.922H375.262L377.22 99.2324H14.8477Z" fill="#DBBC87"/>
<defs>
<linearGradient id="paint0_linear_1177_1770" x1="194.032" y1="120.023" x2="241.494" y2="221.635" gradientUnits="userSpaceOnUse">
<stop stop-color="#D3A153"/>
<stop offset="0.32" stop-color="#CE9D4F"/>
<stop offset="0.72" stop-color="#BE9345"/>
<stop offset="1" stop-color="#AF893B"/>
</linearGradient>
</defs>
</svg>
