<svg width="231" height="504" viewBox="0 0 231 504" fill="none" xmlns="http://www.w3.org/2000/svg">
<path d="M227.025 182.192C221.601 179.252 209.364 187.442 195.378 203.372C198.375 197.262 201.222 190.812 203.919 184.082C223.549 134.982 226.636 89.4524 210.802 82.3924C205.887 80.2024 199.744 81.9724 193.011 86.9124C198.195 39.6724 190.553 1.98242 174.74 0.632425C157.967 -0.807575 138.268 39.1824 130.356 90.3424C125.761 83.9024 120.586 80.6024 115.162 81.3424C97.5701 83.7824 84.0442 127.862 84.9633 179.802C85.1484 193.815 86.5286 207.785 89.089 221.562C85.0931 218.382 81.2571 217.202 77.9706 218.412C65.983 222.822 62.7164 259.142 70.5582 299.552C78.4001 339.962 94.4433 369.142 106.381 364.732C107.838 364.14 109.133 363.207 110.157 362.012L132.853 368.832C133.772 372.262 135.161 374.582 136.979 375.572C147.518 381.292 176.218 342.642 201.082 289.242C225.946 235.842 237.564 187.922 227.025 182.192Z" fill="url(#paint0_radial_1177_1731)"/>
<path d="M177.755 176.783C170.523 175.513 159.315 186.893 148.786 206.163C150.114 199.463 151.183 192.453 151.952 185.233C157.606 132.553 145.499 88.0628 124.98 85.8528C118.597 85.1628 112.154 88.6228 106.13 95.2928C95.8608 48.5628 74.1634 14.6528 55.5727 17.9028C35.8533 21.3528 27.0025 65.3128 35.5037 116.593C28.0315 111.753 20.9688 110.083 15.005 112.363C-4.32486 119.753 -4.68454 165.863 14.2058 215.363C19.2976 228.885 25.684 241.882 33.2759 254.173C27.6018 252.283 22.7968 252.253 19.4503 254.353C7.27301 262.013 15.944 297.763 38.8102 334.203C61.6763 370.643 90.0868 393.993 102.254 386.343C103.67 385.409 104.837 384.142 105.651 382.653H134.011C136.239 385.653 138.626 387.493 141.004 387.923C154.989 390.373 174.669 345.093 184.828 286.793C194.988 228.493 191.791 179.233 177.755 176.783Z" fill="url(#paint1_linear_1177_1731)"/>
<path d="M70.5859 88.373C70.5859 88.373 119.635 320.013 115.839 388.003" stroke="#0C2633" stroke-width="3" stroke-miterlimit="10" stroke-linecap="round"/>
<path d="M105.002 126.493L85.8516 164.943" stroke="#0C2633" stroke-width="3" stroke-miterlimit="10" stroke-linecap="round"/>
<path d="M43.1855 163.753L97.9784 233.503" stroke="#0C2633" stroke-width="3" stroke-miterlimit="10" stroke-linecap="round"/>
<path d="M155.529 239.062L112.774 335.723L40.4492 277.272" stroke="#0C2633" stroke-width="3" stroke-miterlimit="10" stroke-linecap="round"/>
<path d="M159.346 386.593C159.086 385.013 158.507 378.953 163.931 375.263C164.76 374.693 164.39 373.163 163.441 373.163H67.9109C66.912 373.163 66.5923 374.693 67.4215 375.263C72.8458 378.953 72.2664 385.013 72.0067 386.593C72.0067 386.833 64.2648 387.053 64.085 387.223C-2.01617 446.473 86.2619 500.223 90.8171 503.553C90.9567 503.654 91.1242 503.71 91.2966 503.713H140.046C140.221 503.71 140.392 503.655 140.535 503.553C145.091 500.243 233.369 446.473 167.258 387.223C167.078 387.063 159.386 386.843 159.346 386.593Z" fill="url(#paint2_linear_1177_1731)"/>
<path d="M159.016 383.243H72.3359V386.763H159.016V383.243Z" fill="#E8E8E8"/>
<defs>
<radialGradient id="paint0_radial_1177_1731" cx="0" cy="0" r="1" gradientUnits="userSpaceOnUse" gradientTransform="translate(56.6228 219.672) scale(167.046 167.22)">
<stop stop-color="#494F55"/>
<stop offset="0.56" stop-color="#474D53"/>
<stop offset="0.85" stop-color="#40484B"/>
<stop offset="1" stop-color="#394343"/>
</radialGradient>
<linearGradient id="paint1_linear_1177_1731" x1="-37.7101" y1="101.703" x2="227.387" y2="336.909" gradientUnits="userSpaceOnUse">
<stop stop-color="#497555"/>
<stop offset="0.56" stop-color="#497355"/>
<stop offset="0.85" stop-color="#496B55"/>
<stop offset="1" stop-color="#496355"/>
</linearGradient>
<linearGradient id="paint2_linear_1177_1731" x1="95.5222" y1="383.303" x2="144.869" y2="505.908" gradientUnits="userSpaceOnUse">
<stop stop-color="#8C4448"/>
<stop offset="0.19" stop-color="#874447"/>
<stop offset="0.43" stop-color="#774245"/>
<stop offset="0.69" stop-color="#5E4042"/>
<stop offset="0.98" stop-color="#3A3D3D"/>
<stop offset="1" stop-color="#373D3D"/>
</linearGradient>
</defs>
</svg>
