<svg width="297" height="149" viewBox="0 0 297 149" fill="none" xmlns="http://www.w3.org/2000/svg">
<path d="M40.4929 61.2875C43.9883 57.7884 39.3932 47.5153 30.2293 38.3419C21.0654 29.1685 10.803 24.5686 7.30757 28.0677C3.81212 31.5668 8.40729 41.8398 17.5712 51.0133C26.735 60.1867 36.9974 64.7866 40.4929 61.2875Z" fill="#61A694"/>
<path d="M185.151 59.5399C194.315 50.3665 198.91 40.0934 195.415 36.5943C191.919 33.0952 181.657 37.6952 172.493 46.8686C163.329 56.042 158.734 66.3151 162.229 69.8142C165.725 73.3133 175.987 68.7134 185.151 59.5399Z" fill="#5EA190"/>
<path d="M251.018 43.4631C251.018 65.2131 248.52 84.7831 254.124 86.4631C259.728 88.1431 274.053 73.9831 280.587 52.4631C287.12 30.9431 287.579 14.1531 277.02 10.9431C266.461 7.73309 257.551 21.9031 251.018 43.4631Z" fill="#2F8A8F"/>
<path d="M207.141 54.7627C215.133 68.0527 227.12 75.0927 230.547 73.0127C233.973 70.9327 230.187 58.7427 225.362 43.7727C220.617 29.0027 209.049 22.5027 202.516 26.4427C195.983 30.3827 199.139 41.4727 207.141 54.7627Z" fill="#27817F"/>
<path d="M273.112 49.1924C266.379 60.3724 259.187 69.9524 261.205 71.9324C263.223 73.9124 274.091 69.4524 283.731 59.6524C293.371 49.8524 298.776 41.3324 294.97 37.5824C291.164 33.8324 282.752 39.3924 273.112 49.1924Z" fill="#2F8A8F"/>
<path d="M221.098 52.9131C226.243 74.8531 239.629 89.9131 245.333 88.5731C251.037 87.2331 251.177 68.693 251.177 45.843C251.177 23.303 238.081 9.16303 227.302 11.703C216.523 14.243 215.954 30.9731 221.098 52.9131Z" fill="#5BA395"/>
<path d="M86.9871 48.2224C86.9871 60.6724 85.5585 71.8824 88.7652 72.8524C91.9718 73.8224 100.183 65.7124 103.919 53.3624C107.656 41.0124 107.915 31.4324 101.922 29.5924C95.9278 27.7524 90.7332 35.8824 86.9871 48.2224Z" fill="#2F8A8F"/>
<path d="M109.585 55.5923C120.054 72.9823 135.698 82.2023 140.223 79.4823C144.748 76.7623 139.743 60.8023 133.44 41.2023C127.246 21.8923 112.112 13.3823 103.591 18.5923C95.07 23.8023 99.1457 38.2123 109.585 55.5923Z" fill="#27817F"/>
<path d="M23.3938 43.5926C32.9937 64.3326 49.3168 76.5926 54.6812 74.0926C60.0456 71.5926 59.0167 52.2726 51.6843 30.4726C44.3919 8.82264 31.1957 -3.28735 21.0562 1.41265C10.9168 6.11265 13.7937 22.8626 23.3938 43.5926Z" fill="#61A694"/>
<path d="M57.3697 49.0126C67.8388 66.4026 83.4826 75.6326 88.0079 72.9026C92.5331 70.1726 87.5283 54.2326 81.2249 34.6226C75.0014 15.2926 59.8671 6.79261 51.316 11.9426C42.7649 17.0926 46.9006 31.5926 57.3697 49.0126Z" fill="#27817F"/>
<path d="M154.627 70.2225H165.076C165.076 70.2225 187.413 32.9925 186.174 20.0225C184.936 7.05247 177.374 3.77249 173.677 4.79249C169.981 5.81249 158.523 12.3825 154.627 42.5325C154.627 42.5325 147.045 21.4125 139.883 25.7125C132.72 30.0125 136.526 43.8625 141.99 51.5025C147.455 59.1425 143.769 68.3725 143.769 68.3725L154.627 70.2225Z" fill="#5EA190"/>
<path d="M275.32 20.7324L255.301 72.1924" stroke="#0C2633" stroke-width="3" stroke-linecap="round" stroke-linejoin="round"/>
<path d="M173.487 22.2627L156.564 74.8227" stroke="#0C2633" stroke-width="3" stroke-linecap="round" stroke-linejoin="round"/>
<path d="M229.939 31.3525L248.97 83.1925" stroke="#0C2633" stroke-width="3" stroke-linecap="round" stroke-linejoin="round"/>
<path d="M114.719 34.4131L131.042 65.6631" stroke="#0C2633" stroke-width="3" stroke-linecap="round" stroke-linejoin="round"/>
<path d="M97.7675 45.7324L89.7559 68.0224" stroke="#0C2633" stroke-width="3" stroke-linecap="round" stroke-linejoin="round"/>
<path d="M25.4824 11.0928L48.0489 63.4828" stroke="#0C2633" stroke-width="3" stroke-linecap="round" stroke-linejoin="round"/>
<path d="M18.2305 58.4326H289.588L285.512 72.3826H22.3062L18.2305 58.4326Z" fill="#D3A153"/>
<path d="M263.165 148.873H44.6626L23.7344 77.2432H284.093L263.165 148.873Z" fill="url(#paint0_linear_1177_1749)"/>
<path d="M285.512 72.3828L284.094 77.2428H23.7351L22.3066 72.3828H285.512Z" fill="#DBBC87"/>
<defs>
<linearGradient id="paint0_linear_1177_1749" x1="155.367" y1="87.4832" x2="120.894" y2="161.286" gradientUnits="userSpaceOnUse">
<stop stop-color="#D3A153"/>
<stop offset="0.32" stop-color="#CE9D4F"/>
<stop offset="0.72" stop-color="#BE9345"/>
<stop offset="1" stop-color="#AF893B"/>
</linearGradient>
</defs>
</svg>
