<svg width="1920" height="322" viewBox="0 0 1920 322" fill="none" xmlns="http://www.w3.org/2000/svg">
<path fill-rule="evenodd" clip-rule="evenodd" d="M1920 143.035L1840 131.124C1760 119.212 1600 95.3884 1440 125.168C1280 154.947 1120 238.33 960 244.285C800 250.241 640 178.771 480 178.771C320 178.771 160 250.241 80 285.976L-2.86102e-05 321.712L-2.85249e-07 0.0941413L80 0.0941482C160 0.0941552 320 0.0941691 480 0.0941829C640 0.0941968 800 0.0942107 960 0.0942246C1120 0.0942385 1280 0.0942524 1440 0.0942662C1600 0.0942801 1760 0.094294 1840 0.094301L1920 0.0943079L1920 143.035Z" fill="#2E2B3D"/>
</svg>
