<svg width="1920" height="289" viewBox="0 0 1920 289" fill="none" xmlns="http://www.w3.org/2000/svg">
<path fill-rule="evenodd" clip-rule="evenodd" d="M0 108.887L80 114.887C160 120.887 320 132.887 480 114.887C640 96.8867 800 48.8867 960 54.8867C1120 60.8867 1280 120.887 1440 120.887C1600 120.887 1760 60.8867 1840 30.8867L1920 0.886719V288.887H1840C1760 288.887 1600 288.887 1440 288.887C1280 288.887 1120 288.887 960 288.887C800 288.887 640 288.887 480 288.887C320 288.887 160 288.887 80 288.887H0V108.887Z" fill="#2E2B3D"/>
</svg>
