<svg width="225" height="557" viewBox="0 0 225 557" fill="none" xmlns="http://www.w3.org/2000/svg">
<path d="M159.181 286.449H67.9961L84.1607 190.739H143.018L159.181 286.449Z" fill="#181817"/>
<path d="M113.589 294.645C138.769 294.645 159.181 290.975 159.181 286.448C159.181 281.922 138.769 278.252 113.589 278.252C88.4086 278.252 67.9961 281.922 67.9961 286.448C67.9961 290.975 88.4086 294.645 113.589 294.645Z" fill="#68A4EA"/>
<path d="M114.873 0.564453H112.303V169.324H114.873V0.564453Z" fill="black"/>
<path d="M113.59 201.446C129.843 201.446 143.019 196.653 143.019 190.739C143.019 184.825 129.843 180.031 113.59 180.031C97.3362 180.031 84.1602 184.825 84.1602 190.739C84.1602 196.653 97.3362 201.446 113.59 201.446Z" fill="#181817"/>
<path d="M113.59 161.656C114.778 161.656 115.917 162.129 116.758 162.972C117.598 163.815 118.07 164.958 118.07 166.15V195.23H109.109V166.15C109.109 164.958 109.581 163.815 110.422 162.972C111.262 162.129 112.401 161.656 113.59 161.656Z" fill="#181817"/>
<path d="M0.113281 556.398L67.201 286.448H159.751L224.494 556.398H0.113281Z" fill="url(#paint0_linear_1177_1637)"/>
<defs>
<linearGradient id="paint0_linear_1177_1637" x1="112.304" y1="286.448" x2="112.304" y2="556.398" gradientUnits="userSpaceOnUse">
<stop stop-color="#68A4EA" stop-opacity="0.25"/>
<stop offset="1" stop-color="#D9D9D9" stop-opacity="0"/>
</linearGradient>
</defs>
</svg>
