<?xml version="1.0" encoding="utf-8"?>
<!-- Generator: Adobe Illustrator 26.2.1, SVG Export Plug-In . SVG Version: 6.00 Build 0)  -->
<svg version="1.1" id="Layer_1" xmlns="http://www.w3.org/2000/svg" xmlns:xlink="http://www.w3.org/1999/xlink" x="0px" y="0px"
	 viewBox="0 0 1921 1120" style="enable-background:new 0 0 1921 1120;" xml:space="preserve">
<style type="text/css">
	.st0{fill-rule:evenodd;clip-rule:evenodd;fill:#2E2B3D;}
	.st1{fill:#232131;stroke:#58555E;stroke-width:3;}
	.st2{fill:#060606;stroke:#58555E;stroke-width:3;}
	.st3{fill:#FFDC61;stroke:#7A7A7A;stroke-width:10;}
	.st4{fill:#CA9643;stroke:#7A7A7A;stroke-width:10;}
	.st5{fill:#BB0000;}
</style>
<path class="st0" d="M1920.4,0H0.5v1120h480h480h608.9h351.1V0z M1760,65.4H160.9v947.4H1760V65.4z"/>
<rect x="1789.9" y="382.8" class="st1" width="102.3" height="314.4"/>
<rect x="1789.9" y="313.5" class="st2" width="102.3" height="36.5"/>
<circle class="st3" cx="1841.1" cy="430.6" r="19"/>
<circle class="st4" cx="1841.1" cy="503.5" r="19"/>
<circle class="st4" cx="1841.1" cy="576.5" r="19"/>
<circle class="st4" cx="1841.1" cy="649.4" r="19"/>
<path class="st5" d="M1836.7,322.6v17.1h-3.4v-13.2l-4.1,1.3v-2.7l7.1-2.5H1836.7z M1846.7,322.7v17.1h-3.5v-17.1H1846.7z
	 M1853.5,329.9v2.7h-7.8v-2.7H1853.5z M1854.3,322.7v2.8h-8.6v-2.8H1854.3z"/>
</svg>
