<svg width="1601" height="415" viewBox="0 0 1601 415" fill="none" xmlns="http://www.w3.org/2000/svg">
<path d="M624.458 292.21C605.957 287.318 592.908 299.381 579.893 279.463C574.666 271.457 577.852 255.641 567.587 251.949C560.508 249.397 552.059 262.068 543.753 260.533C543.635 245.538 526.81 190.54 511.695 193.305C504.616 194.612 498.339 217.416 492.699 223.903C487.059 230.391 471.059 242.028 463.72 244.717C428.925 257.601 445.349 199.139 421.185 184.432C403.487 173.661 391.499 215.304 374.65 215.395C376.762 185.602 388.396 85.6487 362.792 69.7874C327.501 47.9097 291.278 177.352 256.306 165.943C252.169 115.483 244.608 65.5865 233.711 16.8252C212.236 53.7437 209.9 89.0519 209.652 130.954C210.215 139.04 210.215 147.176 209.652 155.262C209.652 146.906 209.652 138.839 209.652 130.954C207.104 93.6553 192.709 59.0005 168.828 38.9156C124.605 1.63238 132.629 60.7172 126.033 101.1C107.568 98.5929 92.5474 81.3491 79.6629 66.2322C65.0321 87.1376 68.2886 121.306 57.8701 145.478C42.3544 127.247 29.5525 96.861 6.10788 119.65C-8.05093 133.324 -8.69986 166.019 -30.3746 168.525C-36.4629 140.434 -43.7901 114.059 -54.9048 88.2314C-71.6122 91.8169 -71.6947 120.547 -84.0483 127.809C-98.5139 136.317 -90.2664 123.251 -94.101 112.069C-101.487 90.5255 -105.452 52.6043 -124.13 42.577C-255.429 176.517 -324.016 269.679 -354.34 335.555V423.792H142.12H655.855V335.555C649.165 314.057 638.416 295.902 624.458 292.21Z" fill="#053535"/>
<path d="M1863.93 335.527V306.435C1835.12 251.041 1782.53 177.303 1694.49 78.1316C1679.64 86.9433 1676.49 120.268 1670.6 139.199C1667.56 148.999 1674.12 160.561 1662.61 153.031C1652.8 146.556 1652.72 121.309 1639.45 118.185C1630.6 140.882 1624.77 164.086 1619.92 188.772C1602.68 186.569 1602.15 157.904 1590.91 145.822C1572.28 125.795 1562.07 152.497 1549.73 168.518C1541.44 147.277 1544.03 117.25 1532.38 98.8791C1522.14 112.23 1510.19 127.317 1495.5 129.52C1490.24 94.0327 1496.63 42.137 1461.42 74.8739C1442.43 92.524 1430.97 122.938 1428.94 155.755C1428.94 162.644 1428.94 169.733 1428.94 177.116C1428.5 170.01 1428.5 162.862 1428.94 155.755C1428.78 118.932 1426.92 87.9045 1409.82 55.4614C1401.16 98.3175 1395.14 142.169 1391.85 186.516C1364.03 196.542 1335.22 82.7911 1307.14 102.017C1286.77 115.955 1296.03 203.792 1297.75 229.973C1284.35 229.893 1274.85 193.298 1260.73 202.764C1241.51 215.661 1254.57 267.063 1226.94 255.741C1221.09 253.364 1208.42 243.218 1203.88 237.437C1199.35 231.656 1194.44 211.696 1188.77 210.548C1176.75 208.118 1163.35 256.449 1163.26 269.626C1156.69 270.961 1149.92 259.84 1144.3 262.083C1136.14 265.327 1138.67 279.225 1134.5 286.262C1124.18 303.765 1113.78 293.164 1099.06 297.463C1087.94 300.707 1079.4 316.662 1074.07 335.554V423.792H1863.93V335.554V335.527Z" fill="url(#paint0_linear_1177_1653)"/>
<path d="M1555.48 328.739C1546.2 330.186 1531.28 313.52 1521.95 308.585C1509.9 302.203 1495.2 293.475 1481.42 300.098C1477.22 302.12 1469.55 314.194 1464.93 313.054C1457.13 311.123 1454.47 284.987 1450.86 278.106C1436.66 280.602 1429.3 289.946 1417.73 296.786C1416.43 289.522 1416.87 275.593 1416.03 262.271C1415.19 248.949 1413.05 236.06 1406.56 231.251C1388.29 217.721 1365.26 254.117 1352.31 262.271H1351.89C1347.11 248.866 1349.45 203.309 1334.91 208.751C1318.36 214.958 1316.51 240.695 1314.83 262.271C1314.07 272.131 1313.35 281.118 1311.27 286.976C1307.2 277.74 1303.95 269.369 1300.27 262.271C1292.87 248.051 1283.42 238.972 1260.55 238.34C1235.16 237.674 1229.67 247.601 1229.09 262.271C1228.73 272.131 1230.62 284.147 1230.23 296.537C1229.66 314.61 1224.35 308.103 1205.7 305.215C1198.28 304.059 1189.06 301.304 1181.64 303.851C1177.04 305.423 1173.81 311.689 1169.8 312.787C1157.04 316.282 1154.16 301.138 1141.71 299.674C1126.07 297.81 1111.31 320.659 1095.74 320.418C1093.13 313.369 1091.01 306.14 1089.4 298.783C1076.33 295.863 1075.82 315.234 1066.64 319.835C1066.21 306.938 1067.75 293.45 1066.55 280.594C1065.87 274.42 1064.77 268.303 1063.26 262.288C1060.93 253.035 1057.41 243.807 1052.69 241.81C1045.07 238.556 1031.04 254.349 1026.54 259.467C1025.73 260.424 1024.92 261.364 1024.1 262.288C1013.43 275.268 1011.33 284.696 1011.42 303.326C1008.94 290.978 1005.43 276.009 999.64 262.288C991.586 243.15 979.111 226.508 958.809 222.73C953.437 233.331 949.764 247.984 947.602 262.288C946.329 270.86 945.585 279.506 945.375 288.174C945.148 297.543 949.748 320.06 944.107 327.449C937.362 336.294 930.397 330.827 922.871 326.908C903.773 316.964 902.196 311.098 882.293 322.889C866.25 332.4 872.662 321.866 856.205 321.35C840.56 320.859 846.273 340.305 833.88 344.199C820.763 348.359 807.702 329.862 796.211 331.193C786.458 332.325 784.475 343.35 780.233 350.539C775.178 343.425 771.992 326.617 763.727 323.247C755.461 319.877 733.534 332.4 726.488 335.728C726.699 327.732 726.919 310.507 720.173 305.398C712.648 299.69 690.315 307.953 682.553 316.84C689.559 305.373 696.548 294.307 697.556 280.943C698.077 274.731 698.077 268.484 697.556 262.271C696.589 252.552 693.712 243.391 686.535 241.735C679.562 240.121 658.269 246.428 650.776 248.392C640.406 251.049 630.647 255.767 622.055 262.279C621.454 262.745 620.852 263.22 620.267 263.702C608.418 273.429 585.345 291.386 584.613 308.144C582.988 294.506 586.003 276.783 580.298 263.944C580.054 263.394 579.786 262.82 579.485 262.279C572.341 246.777 556.087 221.274 540.825 237.882C535.363 243.824 531.568 253.401 528.536 262.263C527.236 266.074 526.098 269.752 524.969 272.947C520.653 285.57 524.075 285.944 513.046 285.428C503.871 284.979 505.675 277.798 495.63 284.272C486.991 289.83 484.089 301.746 482.553 311.206C467.567 308.344 455.994 284.53 444.12 283.606C427.387 282.299 422.104 317.231 407.199 320.035C394.959 322.34 388.141 301.438 379.802 300.747C366.84 299.674 373.992 326.009 371.326 333.856C356.185 334.555 346.945 309.284 331.308 311.814C320.271 313.611 310.291 332.891 305.147 341.22C295.768 335.395 296.532 321.358 284.431 320.043C272.33 318.729 265.235 332.167 259.643 339.914C255.62 330.486 252.191 316.116 241.122 316.557C230.5 316.981 222.819 334.297 216.903 341.328C215.481 336.211 216.155 317.93 210.182 314.252C203.989 310.441 191.733 321.566 185.093 321.741C188.044 307.945 190.579 292.784 183.817 279.637C170.44 282.907 161.996 294.922 149.781 298.875C147.229 293.192 146.677 276.408 143.499 262.338C140.663 249.765 135.746 239.363 125.457 240.994C118.565 242.093 113.624 251.154 109.511 262.338C103.384 278.979 99.1169 300.414 93.0134 307.088C88.2509 298.991 90.5022 286.718 87.9665 277.357C86.7718 272.897 85.5284 267.58 84.1468 262.238C82.2775 255.015 80.0995 247.718 77.32 242.409C72.395 247.31 69.6318 254.258 68.1689 262.238C64.3979 282.84 69.2742 310.308 68.0307 327.282C66.2997 315.309 62.6343 292.659 50.4356 285.678C37.3509 278.189 30.0609 288.748 28.403 299.607C25.2009 320.626 30.3129 340.263 37.9605 359.168C30.6461 342.61 20.3653 325.194 5.88281 316.224V551.11H785.849H1565.81V320.451C1562.22 324.237 1558.35 328.298 1555.48 328.739Z" fill="url(#paint1_linear_1177_1653)"/>
<path d="M41.7424 437.687C46.3597 415.788 44.0198 395.952 36.6822 376.42C24.8422 344.877 24.4712 312.613 27.3265 279.81C27.5087 278.98 27.7366 278.161 28.0092 277.357C30.311 302.584 37.9775 325.158 44.1582 348.13C49.147 366.696 49.4195 385.815 47.7085 404.902C47.5026 406.658 47.4844 408.433 47.6541 410.194C51.0694 400.901 55.4114 391.973 58.1039 382.458C59.9052 376.073 58.3156 368.914 57.6743 362.143C55.4432 338.809 52.0225 315.569 52.3104 292.032C52.3749 276.638 53.2284 261.259 54.8676 245.957C56.0581 245.774 55.9623 246.533 56.0395 247.058C59.7245 271.28 64.6705 295.267 67.5545 319.62C69.3219 334.23 68.6222 349.043 65.4859 363.41C65.1834 364.624 65.1204 365.887 65.3004 367.126C69.0046 359.358 75.0461 352.798 75.2395 343.272C75.4494 333.428 76.1315 323.563 75.3272 313.769C73.2095 288.482 77.5582 264.013 83.374 239.641C84.8126 233.189 86.707 226.852 89.0422 220.681C88.7717 229.683 88.4617 238.698 88.2175 247.692C87.7696 264.789 87.4834 281.893 86.8739 298.984C86.3312 314.39 82.8979 329.229 78.0812 343.913C93.6174 319.677 122.441 280.471 147.13 261.92C134.698 273.557 123.23 286.227 112.841 299.801C114.026 300.898 114.91 300.013 115.818 299.671C123.085 297.055 130.717 295.658 138.419 295.532C158.042 294.718 177.626 293.175 197.611 292.079C194.095 293.872 190.652 295.85 187.043 297.436C171.138 304.145 154.36 305.197 137.431 305.394C134.538 305.423 131.519 305.374 128.574 305.42C113.83 305.597 101.748 310.753 94.2101 324.534C92.7159 327.268 90.2755 329.436 88.722 333.972C100.828 320.325 115.545 319.92 130.676 320.329C146.857 320.581 162.995 318.57 178.644 314.352C175.002 318.148 170.289 320.75 162.044 323.844C149.619 328.273 136.683 331.028 123.563 332.038C111.64 333.161 99.7333 334.337 88.4109 338.768C85.0734 340.023 82.2713 342.436 80.492 345.588C67.8482 366.69 57.2995 388.783 50.1058 412.508C49.6257 413.957 49.327 415.463 49.217 416.989C52.6802 413.223 55.663 409.034 59.458 405.679C66.7293 399.146 75.5327 394.658 85.0066 392.654C101.785 389.105 118.598 385.664 135.373 382.057C139.669 381.136 143.849 379.749 148.828 378.366C133.611 390.791 116.838 397.785 98.6711 401.581C86.6453 404.045 74.5608 406.275 63.4172 411.925C60.2272 413.533 57.2301 415.514 54.486 417.829C49.3562 422.158 45.6654 427.143 44.7327 434.402C43.6031 443.256 42.2555 452.062 41.8329 460.995C41.7445 462.659 42.7855 465.704 39.7161 465.494C36.6468 465.283 38.5646 462.559 38.5716 461.145C38.5995 457.232 39.0576 453.334 39.9373 449.525L41.7424 437.687Z" fill="#1F6958"/>
<path d="M39.1249 444.99C38.8389 445.559 38.1299 447.233 37.9189 445.772C34.5087 423.955 23.0301 405.099 16.614 384.432C10.7318 365.655 10.1151 346.456 11.4542 327.015C11.9487 318.999 13.0481 311.034 14.7427 303.191C16.244 314.746 17.6358 326.322 19.6408 337.771C22.6589 355.951 26.7267 373.932 31.8227 391.619C37.0046 410.894 34.818 424.433 39.1249 444.99Z" fill="#1F6958"/>
<path d="M163.211 353.601C146.191 365.043 128.135 373.87 107.579 375.182C87.2558 376.493 70.867 385.455 57.3841 400.683C57.0089 401.147 56.6102 401.59 56.1896 402.011C55.7912 402.201 55.3714 402.339 54.9397 402.422C59.9372 392.465 67.2042 383.887 76.1255 377.415C87.6125 369.061 100.765 363.417 114.638 360.891C130.633 357.807 147.035 356.759 163.211 353.601Z" fill="#1F6958"/>
<path d="M114.266 291.014C116.552 285.806 118.944 280.564 121.125 275.391C125.615 264.508 129.097 253.218 131.528 241.669C135.041 224.724 143.173 209.738 151.426 194.861C154.221 189.888 157.063 185.062 160.3 179.602C160.587 180.286 160.726 181.025 160.709 181.769C160.692 182.513 160.518 183.244 160.199 183.913C154.393 203.915 148.447 223.887 142.719 243.907C137.451 262.246 126.399 276.898 114.266 291.014Z" fill="#1F6958"/>
<path d="M70.1377 370.32C79.8037 352.171 94.6496 342.206 114.676 340.423C132.627 338.948 150.469 336.314 168.096 332.537C168.623 332.364 169.215 332.17 169.774 332.937C160.552 341.061 149.374 344.657 137.844 347.314C131.374 348.8 124.845 350.097 118.263 351.041C100.76 353.668 84.2531 358.732 70.1377 370.32Z" fill="#1F6958"/>
<path d="M148.409 265.169C155.265 257.272 164.105 253.344 173.752 251.068C179.933 249.487 186.315 248.894 192.673 249.311C210.571 250.862 228.342 251.176 246.183 248.749C227.785 258.014 208.673 264.35 187.887 262.797C174.598 261.828 161.387 260.833 148.409 265.169Z" fill="#1F6958"/>
<path d="M232.93 265.729C214.1 278.805 193.519 284.851 170.597 282.499C155.71 280.97 140.806 281.288 126.341 286.202C128.129 282.644 133.998 278.221 139.862 275.82C153.059 270.609 166.826 270.694 180.525 271.766C198.419 273.259 215.954 272.864 232.93 265.729Z" fill="#1F6958"/>
<path d="M92.7915 314.896C97.2762 296.28 98.3506 277.06 102.402 258.497C107.339 236.182 117.758 216.315 130.283 197.614C130.425 197.419 130.78 197.347 131.443 197.01C128.425 205.162 125.42 212.938 122.663 220.811C117.568 235.351 113.599 250.279 110.793 265.458C107.458 282.83 101.378 299.529 92.7915 314.896Z" fill="#1F6958"/>
<path d="M250.398 189.056C220.95 204.267 195.975 226.953 166.154 241.485C189.027 215.285 214.855 194.028 250.398 189.056Z" fill="#1F6958"/>
<path d="M143.975 258.898C156.507 225.859 178.059 199.707 204.371 175.824C197.864 184.557 191.904 192.352 186.136 200.293C178.118 211.334 171.335 223.218 164.067 234.756C159.305 242.221 153.897 249.232 147.908 255.705C146.754 256.931 145.728 258.427 143.975 258.898Z" fill="#1F6958"/>
<path d="M222.627 419.001C233.694 403.292 238.551 386.748 239.348 368.673C240.641 339.487 251.263 313.797 264.624 288.825C265.049 288.232 265.506 287.664 265.994 287.124C259.282 307.924 257.718 328.525 254.841 348.915C252.512 365.391 246.259 380.633 238.445 395.146C237.688 396.465 237.073 397.864 236.612 399.319C242.461 393.169 248.921 387.637 254.274 381.054C257.861 376.635 259.024 370.401 260.807 364.809C266.934 345.534 272.088 325.911 280.279 307.368C285.539 295.197 291.419 283.317 297.894 271.776C298.899 272.054 298.567 272.621 298.45 273.064C293.174 293.559 288.976 314.315 283.021 334.628C279.478 346.829 273.912 358.315 266.566 368.584C265.916 369.438 265.439 370.416 265.162 371.461C270.725 366.622 277.73 363.568 281.106 356.09C284.603 348.367 288.481 340.794 291.158 332.751C298.036 311.968 309.76 294.127 322.613 276.884C325.935 272.283 329.58 267.935 333.518 263.875C330.258 270.91 326.962 277.942 323.726 284.979C317.586 298.364 311.572 311.812 305.307 325.134C299.665 337.145 291.924 347.682 283.14 357.606C303.647 343.918 339.746 323.084 365.579 317.145C351.795 321.954 338.423 327.923 325.6 334.991C326.168 336.28 327.167 335.893 328.003 335.944C334.644 336.449 341.163 338.049 347.307 340.681C363.127 346.996 379.162 352.72 395.364 358.94C391.972 359.113 388.576 359.459 385.18 359.435C370.311 359.108 356.664 353.992 343.187 348.143C340.886 347.14 338.511 346.03 336.162 345.022C324.422 339.933 313.107 339.732 302.474 347.975C300.365 349.611 297.698 350.463 294.933 353.505C309.141 346.989 320.935 351.887 332.783 357.578C345.515 363.516 358.98 367.647 372.804 369.856C368.634 371.571 364.02 371.961 356.442 371.488C345.101 370.59 333.922 368.184 323.187 364.331C313.362 360.991 303.532 357.7 293.064 357.194C289.995 357.005 286.959 357.922 284.483 359.788C267.328 372.02 251.496 385.78 237.771 402.022C236.9 403 236.154 404.086 235.551 405.256C239.568 403.501 243.348 401.241 247.49 399.929C255.46 397.333 263.952 396.9 272.135 398.673C286.627 401.812 301.11 405.049 315.619 408.142C319.334 408.936 323.114 409.32 327.526 409.99C311.268 414.436 295.614 414.027 279.939 410.591C269.579 408.277 259.252 405.758 248.513 406.281C245.442 406.424 242.397 406.93 239.44 407.79C233.912 409.4 229.302 412.04 226.107 417.46C222.216 424.072 218.169 430.57 214.812 437.497C214.179 438.783 213.974 441.565 211.613 440.31C209.253 439.054 211.694 437.576 212.178 436.459C213.524 433.369 215.206 430.444 217.191 427.739L222.627 419.001Z" fill="#1F6958"/>
<path d="M218.085 423.859C217.665 424.209 216.538 425.283 216.865 424.051C221.545 405.559 218.832 386.551 220.742 367.904C222.435 350.943 228.443 335.516 236.081 320.591C239.185 314.416 242.751 308.497 246.747 302.885C244.026 312.571 241.212 322.235 238.927 332.015C235.167 347.487 232.305 363.173 230.358 378.992C227.941 396.098 221.628 406.047 218.085 423.859Z" fill="#1F6958"/>
<path d="M347.299 395.475C329.946 398.503 312.656 399.09 295.929 392.84C279.386 386.67 263.371 387.957 247.539 395.237C247.085 395.472 246.619 395.681 246.143 395.866C245.763 395.874 245.384 395.835 245.014 395.747C252.342 389.633 261 385.415 270.257 383.452C282.183 380.909 294.512 381.103 306.356 384.022C320.07 387.252 333.417 392.239 347.299 395.475Z" fill="#1F6958"/>
<path d="M329.705 328.537C333.278 325.223 336.946 321.918 340.424 318.594C347.663 311.566 354.242 303.857 360.074 295.571C368.591 283.394 380.103 274.407 391.675 265.549C395.571 262.601 399.455 259.786 403.867 256.609C403.862 257.252 403.723 257.887 403.458 258.47C403.192 259.054 402.807 259.571 402.328 259.988C390.961 273.773 379.494 287.485 368.183 301.313C357.805 313.971 344.093 321.658 329.705 328.537Z" fill="#1F6958"/>
<path d="M267.911 375.708C281.709 364.759 296.841 362.13 313.308 367.821C328.027 373.019 343.052 377.261 358.293 380.521C358.769 380.57 359.303 380.626 359.487 381.432C349.433 384.597 339.362 383.481 329.329 381.497C323.701 380.379 318.09 379.091 312.557 377.504C297.803 373.378 283.013 371.535 267.911 375.708Z" fill="#1F6958"/>
<path d="M365.489 320.173C373.591 316.349 381.922 316.373 390.334 317.991C395.766 318.931 401.022 320.725 405.918 323.31C419.571 330.886 433.542 337.438 448.496 341.844C430.787 342.658 413.504 340.898 397.564 332.296C387.364 326.814 377.236 321.341 365.489 320.173Z" fill="#1F6958"/>
<path d="M432.257 350.594C412.917 354.274 394.568 351.764 377.206 341.771C365.93 335.279 354.017 330.246 340.896 329.008C343.516 326.823 349.661 325.401 355.119 325.579C367.336 326.132 378.213 331.082 388.702 336.79C402.372 344.319 416.396 350.225 432.257 350.594Z" fill="#1F6958"/>
<path d="M304.61 339.838C314.461 326.682 321.815 311.838 331.306 298.57C342.766 282.644 357.741 270.602 373.991 260.23C374.169 260.126 374.475 260.195 375.114 260.163C369.966 265.55 364.954 270.644 360.106 275.903C351.151 285.614 342.956 296.032 335.597 307.06C327.078 319.639 316.611 330.71 304.61 339.838Z" fill="#1F6958"/>
<path d="M472.031 296.052C443.556 297.657 416.097 306.77 387.558 307.704C414.541 295.063 442.193 287.384 472.031 296.052Z" fill="#1F6958"/>
<path d="M364.106 313.634C385.211 291.907 411.133 278.834 440.056 269.248C431.947 273.858 424.589 277.919 417.332 282.163C407.245 288.066 397.851 295.074 388.19 301.636C381.892 305.86 375.236 309.496 368.302 312.5C366.973 313.061 365.654 313.882 364.106 313.634Z" fill="#1F6958"/>
<path d="M1489.7 426.213C1482.01 393.05 1484.96 362.801 1495.53 332.856C1512.58 284.497 1512.16 235.408 1506.82 185.601C1506.52 184.344 1506.15 183.106 1505.71 181.892C1502.98 220.339 1492 254.921 1483.3 290.063C1476.27 318.462 1476.44 347.554 1479.62 376.533C1479.99 379.198 1480.07 381.897 1479.87 384.58C1474.39 370.555 1467.51 357.112 1463.13 342.724C1460.19 333.069 1462.39 322.129 1463.16 311.808C1465.85 276.243 1470.35 240.783 1469.19 204.989C1468.63 181.576 1466.86 158.208 1463.9 134.984C1462.08 134.744 1462.25 135.896 1462.15 136.696C1457.28 173.66 1450.49 210.305 1446.84 247.44C1444.6 269.72 1446.11 292.23 1451.32 313.985C1451.82 315.822 1451.95 317.741 1451.72 319.631C1445.84 307.933 1436.46 298.148 1435.87 283.663C1435.25 268.696 1433.92 253.711 1434.84 238.788C1437.29 200.256 1429.93 163.173 1420.35 126.286C1417.96 116.517 1414.89 106.938 1411.15 97.6256C1411.83 111.311 1412.58 125.014 1413.22 138.687C1414.42 164.68 1415.38 190.688 1416.83 216.667C1418.12 240.083 1423.79 262.546 1431.57 284.729C1407.2 248.358 1362.16 189.639 1324.04 162.208C1343.31 179.512 1361.14 198.42 1377.35 218.737C1375.58 220.443 1374.21 219.126 1372.82 218.633C1361.69 214.887 1350.03 213.004 1338.32 213.058C1308.44 212.446 1278.6 210.723 1248.17 209.693C1253.57 212.309 1258.87 215.207 1264.41 217.505C1288.81 227.202 1314.36 228.269 1340.12 228.028C1344.52 227.98 1349.11 227.809 1353.59 227.786C1376.02 227.585 1394.56 235.043 1406.44 255.764C1408.8 259.875 1412.58 263.096 1415.08 269.946C1396.25 249.574 1373.85 249.426 1350.85 250.53C1326.24 251.43 1301.63 248.886 1277.7 242.968C1283.36 248.626 1290.6 252.434 1303.24 256.877C1322.27 263.219 1342.03 266.997 1362.02 268.115C1380.19 269.443 1398.34 270.853 1415.7 277.232C1420.81 279.035 1425.15 282.616 1427.95 287.353C1447.83 319.05 1464.54 352.32 1476.21 388.179C1476.98 390.369 1477.48 392.649 1477.7 394.967C1472.31 389.348 1467.65 383.072 1461.77 378.089C1450.52 368.383 1436.99 361.837 1422.52 359.091C1396.89 354.227 1371.21 349.529 1345.58 344.577C1339.02 343.313 1332.62 341.336 1325 339.392C1348.53 357.807 1374.25 367.91 1402 373.107C1420.37 376.471 1438.82 379.478 1455.94 387.717C1460.84 390.061 1465.46 392.979 1469.71 396.413C1477.64 402.834 1483.41 410.3 1485.05 421.312C1487.04 434.743 1489.35 448.096 1490.27 461.671C1490.45 464.198 1488.96 468.864 1493.62 468.446C1498.29 468.028 1495.29 463.945 1495.23 461.795C1495.07 455.843 1494.26 449.929 1492.8 444.163L1489.7 426.213Z" fill="#022626"/>
<path d="M1493.91 437.235C1494.36 438.092 1495.49 440.616 1495.77 438.387C1500.29 405.091 1517.18 376.043 1526.31 344.401C1534.68 315.651 1535.04 286.427 1532.41 256.898C1531.41 244.72 1529.5 232.639 1526.68 220.763C1524.75 238.388 1522.99 256.041 1520.28 273.521C1516.25 301.271 1510.61 328.752 1503.39 355.819C1496.1 385.303 1499.83 405.828 1493.91 437.235Z" fill="#022626"/>
<path d="M1302.37 302.175C1328.61 319.038 1356.35 331.888 1387.65 333.23C1418.61 334.576 1443.81 347.686 1464.78 370.419C1465.37 371.113 1465.99 371.775 1466.64 372.402C1467.25 372.677 1467.89 372.873 1468.55 372.986C1460.65 358 1449.33 345.184 1435.57 335.623C1417.84 323.281 1397.66 315.116 1376.48 311.715C1352.06 307.534 1327.08 306.463 1302.37 302.175Z" fill="#022626"/>
<path d="M1374.92 205.414C1371.29 197.565 1367.49 189.668 1364.01 181.868C1356.85 165.457 1351.21 148.395 1347.16 130.905C1341.3 105.241 1328.48 82.7042 1315.47 60.3373C1311.07 52.8612 1306.6 45.6119 1301.51 37.4092C1301.09 38.4585 1300.91 39.5872 1300.95 40.7184C1301 41.8496 1301.29 42.9567 1301.79 43.9642C1311.24 74.2034 1320.89 104.395 1330.21 134.665C1338.78 162.393 1356.04 184.328 1374.92 205.414Z" fill="#022626"/>
<path d="M1444.47 324.64C1429.21 297.341 1406.32 282.655 1375.81 280.582C1348.46 278.91 1321.24 275.472 1294.31 270.289C1293.5 270.043 1292.6 269.766 1291.77 270.951C1306.04 283.014 1323.16 288.128 1340.77 291.803C1350.66 293.857 1360.63 295.622 1370.67 296.847C1397.38 300.286 1422.64 307.463 1444.47 324.64Z" fill="#022626"/>
<path d="M1322.2 167.188C1311.53 155.394 1297.96 149.702 1283.22 146.546C1273.77 144.339 1264.04 143.641 1254.38 144.477C1227.21 147.406 1200.18 148.451 1172.97 145.328C1201.24 158.835 1230.5 167.863 1262.07 164.838C1282.26 162.941 1302.32 161.006 1322.2 167.188Z" fill="#022626"/>
<path d="M1193.65 170.734C1222.69 190.025 1254.18 198.565 1288.98 194.256C1311.57 191.456 1334.25 191.465 1356.41 198.478C1353.58 193.123 1344.52 186.582 1335.52 183.116C1315.29 175.612 1294.35 176.179 1273.55 178.247C1246.37 181.087 1219.69 181.045 1193.65 170.734Z" fill="#022626"/>
<path d="M1408.31 241.059C1400.93 212.884 1398.71 183.683 1391.98 155.575C1383.79 121.788 1367.34 91.9 1347.72 63.8519C1347.5 63.5595 1346.95 63.4615 1345.93 62.9704C1350.77 75.2739 1355.58 87.0063 1360.01 98.894C1368.21 120.849 1374.7 143.431 1379.43 166.43C1385.03 192.749 1394.79 217.956 1408.31 241.059Z" fill="#022626"/>
<path d="M1164.76 54.6623C1210.02 76.8624 1248.7 110.574 1294.5 131.728C1258.91 92.6043 1218.98 61.0923 1164.76 54.6623Z" fill="#022626"/>
<path d="M1328.75 157.51C1308.68 107.652 1275.1 68.5583 1234.35 33.069C1244.52 46.1452 1253.82 57.8128 1262.83 69.7076C1275.37 86.2474 1286.05 104.108 1297.45 121.426C1304.92 132.63 1313.36 143.123 1322.67 152.778C1324.46 154.606 1326.07 156.848 1328.75 157.51Z" fill="#022626"/>
<defs>
<linearGradient id="paint0_linear_1177_1653" x1="1469" y1="55.4614" x2="1469" y2="405.626" gradientUnits="userSpaceOnUse">
<stop stop-color="#419E60" stop-opacity="0.5"/>
<stop offset="0.55107" stop-color="#2D6F5F"/>
</linearGradient>
<linearGradient id="paint1_linear_1177_1653" x1="785.849" y1="208.302" x2="785.849" y2="472.861" gradientUnits="userSpaceOnUse">
<stop offset="0.161458" stop-color="#34B45F" stop-opacity="0.5"/>
<stop offset="0.723958" stop-color="#2D947B"/>
</linearGradient>
</defs>
</svg>
