<svg width="225" height="552" viewBox="0 0 225 552" fill="none" xmlns="http://www.w3.org/2000/svg">
<path d="M159.81 281.449H68.625L84.7896 185.739H143.647L159.81 281.449Z" fill="#181817"/>
<path d="M114.218 289.646C139.398 289.646 159.81 285.976 159.81 281.449C159.81 276.922 139.398 273.252 114.218 273.252C89.0375 273.252 68.625 276.922 68.625 281.449C68.625 285.976 89.0375 289.646 114.218 289.646Z" fill="#559C34"/>
<path d="M115.502 0.225586H112.932V164.324H115.502V0.225586Z" fill="black"/>
<path d="M114.219 196.447C130.472 196.447 143.648 191.653 143.648 185.739C143.648 179.826 130.472 175.032 114.219 175.032C97.9651 175.032 84.7891 179.826 84.7891 185.739C84.7891 191.653 97.9651 196.447 114.219 196.447Z" fill="#181817"/>
<path d="M114.219 156.656C115.407 156.656 116.546 157.13 117.387 157.973C118.227 158.816 118.699 159.959 118.699 161.151V190.231H109.738V161.151C109.738 159.959 110.21 158.816 111.051 157.973C111.891 157.13 113.03 156.656 114.219 156.656Z" fill="#181817"/>
<path d="M0.0585938 551.398L67.1463 281.448H159.696L224.439 551.398H0.0585938Z" fill="url(#paint0_linear_1177_1644)"/>
<defs>
<linearGradient id="paint0_linear_1177_1644" x1="112.249" y1="281.448" x2="112.249" y2="551.398" gradientUnits="userSpaceOnUse">
<stop stop-color="#559C34" stop-opacity="0.25"/>
<stop offset="1" stop-color="#D9D9D9" stop-opacity="0"/>
</linearGradient>
</defs>
</svg>
