<svg width="135" height="235" viewBox="0 0 135 235" fill="none" xmlns="http://www.w3.org/2000/svg">
<path d="M134.466 222.134H0.507812L24.2549 81.6133H110.721L134.466 222.134Z" fill="#181817"/>
<path d="M67.4869 234.168C104.478 234.168 134.466 228.78 134.466 222.134C134.466 215.487 104.478 210.1 67.4869 210.1C30.4954 210.1 0.507812 215.487 0.507812 222.134C0.507812 228.78 30.4954 234.168 67.4869 234.168Z" fill="#EAE468"/>
<path d="M69.375 -91.3657H65.5996V50.1726H69.375V-91.3657Z" fill="black"/>
<path d="M67.4882 97.3343C91.3658 97.3343 110.722 90.2958 110.722 81.6134C110.722 72.931 91.3658 65.8926 67.4882 65.8926C43.6105 65.8926 24.2539 72.931 24.2539 81.6134C24.2539 90.2958 43.6105 97.3343 67.4882 97.3343Z" fill="#181817"/>
<path d="M67.49 38.9141C69.2356 38.9141 70.9097 39.6093 72.1441 40.8469C73.3784 42.0844 74.0718 43.7629 74.0718 45.5131V88.2076H60.9082V45.5131C60.9082 43.7629 61.6016 42.0844 62.836 40.8469C64.0703 39.6093 65.7444 38.9141 67.49 38.9141Z" fill="#181817"/>
</svg>
